<svg id="t-1-5" xmlns="http://www.w3.org/2000/svg" width="320" height="480" viewBox="0 0 320 480">
  <metadata><?xpacket begin="﻿" id="W5M0MpCehiHzreSzNTczkc9d"?>
<x:xmpmeta xmlns:x="adobe:ns:meta/" x:xmptk="Adobe XMP Core 5.6-c138 79.159824, 2016/09/14-01:09:01        ">
   <rdf:RDF xmlns:rdf="http://www.w3.org/1999/02/22-rdf-syntax-ns#">
      <rdf:Description rdf:about=""/>
   </rdf:RDF>
</x:xmpmeta>
                                                                                                    
                                                                                                    
                                                                                                    
                                                                                                    
                                                                                                    
                                                                                                    
                                                                                                    
                                                                                                    
                                                                                                    
                                                                                                    
                                                                                                    
                                                                                                    
                                                                                                    
                                                                                                    
                                                                                                    
                                                                                                    
                                                                                                    
                                                                                                    
                                                                                                    
                                                                                                    
                           
<?xpacket end="w"?></metadata>
<defs>
    <style>
      .cls-1 {
        fill: none;
        stroke: red;
        stroke-linecap: round;
        stroke-linejoin: round;
        stroke-width: 2px;
        fill-rule: evenodd;
      }
    </style>
  </defs>
  <path id="t-1-5-2" data-name="t-1-5" class="cls-1" d="M210,300a116.713,116.713,0,0,0-18.738-9.468A91.407,91.407,0,0,0,173,286a72.19,72.19,0,0,0-15.848-2A99.727,99.727,0,0,0,139,286a174.786,174.786,0,0,0-17.579,10.842A209.809,209.809,0,0,0,104,311s-4.852,12.037-8.362,23.918A194.522,194.522,0,0,0,91,355s-1.7,12.059-2.423,25.565C88.007,391.212,86.983,399.692,87,405c0.006,1.9,2,6,2,6l26.986,17.838C131.524,439.109,148,452,148,452l11,4h8a286.842,286.842,0,0,0,30.9-21.771c10.867-8.939,21.176-19.066,26.768-24.745C227.394,406.713,229,399,229,399s-0.042-12.113-1-32a442.835,442.835,0,0,0-5-45,47.35,47.35,0,0,0-5.231-12.362A61.444,61.444,0,0,0,210,300Z"/>
  <path id="t-1-5-t1" class="cls-1" d="M112,79l-3,17,1,23s2.506,34.8,2.01,69.817C111.506,224.293,108,260,108,260l-5,52s7.469-6.745,14.4-12.077A129.039,129.039,0,0,1,129,292a32.137,32.137,0,0,1,6.329-3.26A37.746,37.746,0,0,1,143,287a74.568,74.568,0,0,1,15.9-2,76.81,76.81,0,0,1,16.1,2,201.654,201.654,0,0,1,19.742,6.288A135.811,135.811,0,0,1,211,301s-3.842-20.652-8.358-38.981C198.7,246,194,232,194,232s-4.818-22.459-16.443-52.607c-9.81-25.439-21.6-56.23-30.584-76.715A211.5,211.5,0,0,0,135,79l-9-7s-4.755-2.123-8.375-.312C114.254,73.373,112,79,112,79Z"/>
  <path id="t-1-5-t2" class="cls-1" d="M196,229s6.29-52.4,6-95a224.39,224.39,0,0,0-7-52l-6-14s-2.939-3.294-5.63-3.563C181.1,64.21,179,67,179,67a37.061,37.061,0,0,0-6.332,7.442C170.673,77.6,168,89,168,89s-2.424,7.937-4.885,18.027C160.577,117.433,159,127,159,127l36,105s-0.632,3.632,0,3C195.839,234.161,196,229,196,229Z"/>
</svg>
