<svg id="t-11" xmlns="http://www.w3.org/2000/svg" width="320" height="480" viewBox="0 0 320 480">
  <metadata><?xpacket begin="﻿" id="W5M0MpCehiHzreSzNTczkc9d"?>
<x:xmpmeta xmlns:x="adobe:ns:meta/" x:xmptk="Adobe XMP Core 5.6-c138 79.159824, 2016/09/14-01:09:01        ">
   <rdf:RDF xmlns:rdf="http://www.w3.org/1999/02/22-rdf-syntax-ns#">
      <rdf:Description rdf:about=""/>
   </rdf:RDF>
</x:xmpmeta>
                                                                                                    
                                                                                                    
                                                                                                    
                                                                                                    
                                                                                                    
                                                                                                    
                                                                                                    
                                                                                                    
                                                                                                    
                                                                                                    
                                                                                                    
                                                                                                    
                                                                                                    
                                                                                                    
                                                                                                    
                                                                                                    
                                                                                                    
                                                                                                    
                                                                                                    
                                                                                                    
                           
<?xpacket end="w"?></metadata>
<defs>
    <style>
      .cls-1 {
        fill: none;
        stroke: #000;
        stroke-linecap: round;
        stroke-linejoin: round;
        stroke-width: 2px;
        fill-rule: evenodd;
      }
    </style>
  </defs>
  <path id="t-1-1-b" class="cls-1" d="M106.7,263.528l-8.425,12.677L87.042,298.634l-4.681,17.553-6.553,29.255A173.12,173.12,0,0,0,73,373.722a138.829,138.829,0,0,0,2.808,26.329l1.872,16.578a44.238,44.238,0,0,0,2.808,9.751,25.935,25.935,0,0,0,4.68,6.827,72.93,72.93,0,0,0,9.361,4.875,60.543,60.543,0,0,0,9.361,2.926l30.891,2.925,17.786-.975,27.147,1.951s11.507,0.2,12.17,0a81.775,81.775,0,0,0,12.169-1.951,43.511,43.511,0,0,0,9.361-3.9,110.973,110.973,0,0,0,12.17-6.827,32.245,32.245,0,0,0,6.553-5.851,14.755,14.755,0,0,0,1.872-5.851c1.043-10.6,1.872-32.18,1.872-32.18s0.243-11.057,0-21.454c-0.224-9.558-.936-18.528-0.936-18.528s-1.818-21.273-4.681-39.981c-2.2-14.35-5.616-27.305-5.616-27.305a33.394,33.394,0,0,0-6.553-11.7,104.125,104.125,0,0,0-11.233-10.727S198.439,251.516,190,248a58.4,58.4,0,0,0-15-4,129.162,129.162,0,0,0-14-1c-7.19,0-20,2-20,2l-19,6Z"/>
  <path id="t-1-1-t" class="cls-1" d="M164,16a74.684,74.684,0,0,0-13,12,56.508,56.508,0,0,0-8,14s-3.373,15.194-6,30c-2.863,16.136-7,34-7,34l-5,27-7,34-4,24-5,37-3,24-1,13,19-14a91.656,91.656,0,0,1,12-4c6.661-1.727,15-3,15-3a65.665,65.665,0,0,1,11-1,76.506,76.506,0,0,1,11,1l18,6,8.456,5.147L214,264l-11-61-10-62a69.59,69.59,0,0,1-1-7c-0.363-3.31-.9-8.98-1-13-0.236-9.2-1-19-1-19s-0.178-10.131-1-20c-0.659-7.913-1-16-1-16l-4-30a35.932,35.932,0,0,0-4-8,55.846,55.846,0,0,0-7-8Z"/>
</svg>
