<?xml version="1.0" standalone="no"?>
<!DOCTYPE svg PUBLIC "-//W3C//DTD SVG 20010904//EN"
 "http://www.w3.org/TR/2001/REC-SVG-20010904/DTD/svg10.dtd">
<svg version="1.0" xmlns="http://www.w3.org/2000/svg"
 width="512.000000pt" height="512.000000pt" viewBox="0 0 512.000000 512.000000"
 preserveAspectRatio="xMidYMid meet">
<metadata>
Created by potrace 1.11, written by Peter Selinger 2001-2013
</metadata>
<g transform="translate(0.000000,512.000000) scale(0.100000,-0.100000)"
fill="#000000" stroke="none">
<path d="M3332 4810 c-55 -25 -227 -198 -353 -355 -463 -578 -892 -1330 -1083
-1896 -55 -166 -115 -399 -131 -514 -4 -22 -8 -47 -10 -55 -4 -13 -13 -88 -20
-160 -2 -14 -3 -27 -4 -30 -1 -2 -22 16 -48 41 -43 41 -96 82 -131 103 -6 4
12 -33 42 -82 30 -49 66 -116 80 -150 29 -69 58 -181 50 -194 -8 -13 -63 -8
-139 11 l-70 19 35 -30 c19 -16 57 -39 83 -53 l48 -24 -36 -10 c-41 -11 -170
-85 -181 -103 -5 -8 -2 -9 12 -3 80 33 229 60 254 45 10 -6 -2 -46 -110 -360
-73 -216 -220 -689 -220 -712 0 -6 15 3 33 20 19 18 34 38 34 45 0 37 262 824
403 1212 94 259 271 718 316 820 7 17 45 104 83 195 166 395 356 795 510 1073
39 70 71 130 71 133 0 3 5 10 10 17 6 7 40 62 76 122 111 184 304 465 320 465
3 0 -29 -48 -69 -107 -74 -108 -201 -314 -260 -421 -17 -31 -41 -75 -54 -97
-31 -54 -301 -593 -338 -675 -16 -36 -43 -97 -61 -137 -47 -101 -177 -405
-209 -488 -15 -38 -33 -83 -41 -100 -24 -55 -95 -238 -171 -440 -75 -199 -95
-254 -173 -479 l-41 -118 34 -32 c19 -17 46 -51 62 -74 15 -23 30 -41 32 -39
11 11 -37 118 -70 155 l-20 22 74 1 c218 2 386 75 474 205 36 54 37 69 2 37
-29 -26 -80 -43 -131 -43 l-41 0 61 34 c135 72 224 161 289 286 21 41 19 47
-7 19 -37 -39 -115 -89 -181 -116 -47 -19 -86 -26 -164 -29 -62 -2 -104 0
-108 6 -3 5 3 10 15 10 42 0 188 65 283 127 227 147 387 374 526 751 27 72 47
132 45 132 -3 0 -32 -9 -65 -20 -77 -26 -95 -21 -36 9 63 32 138 106 192 187
25 38 45 72 45 75 0 3 -30 -9 -67 -26 -114 -54 -138 -52 -53 3 41 26 92 68
113 93 47 54 120 198 148 291 21 69 20 90 -3 71 -21 -17 -178 -68 -178 -58 0
2 25 17 56 35 30 17 76 51 100 76 83 82 227 328 309 528 94 227 110 452 42
600 -30 66 -114 149 -165 164 -53 16 -70 15 -120 -8z m-42 -374 c0 -2 -8 -10
-17 -17 -16 -13 -17 -12 -4 4 13 16 21 21 21 13z"/>
</g>
</svg>
