<svg id="t-1-2" xmlns="http://www.w3.org/2000/svg" width="320" height="480" viewBox="0 0 320 480">
  <metadata><?xpacket begin="﻿" id="W5M0MpCehiHzreSzNTczkc9d"?>
<x:xmpmeta xmlns:x="adobe:ns:meta/" x:xmptk="Adobe XMP Core 5.6-c138 79.159824, 2016/09/14-01:09:01        ">
   <rdf:RDF xmlns:rdf="http://www.w3.org/1999/02/22-rdf-syntax-ns#">
      <rdf:Description rdf:about=""/>
   </rdf:RDF>
</x:xmpmeta>
                                                                                                    
                                                                                                    
                                                                                                    
                                                                                                    
                                                                                                    
                                                                                                    
                                                                                                    
                                                                                                    
                                                                                                    
                                                                                                    
                                                                                                    
                                                                                                    
                                                                                                    
                                                                                                    
                                                                                                    
                                                                                                    
                                                                                                    
                                                                                                    
                                                                                                    
                                                                                                    
                           
<?xpacket end="w"?></metadata>
<defs>
    <style>
      .cls-1 {
        fill: none;
        stroke: #000;
        stroke-linecap: round;
        stroke-linejoin: round;
        stroke-width: 5.07px;
        fill-rule: evenodd;
      }
    </style>
  </defs>
  <path id="t-1-2-b" class="cls-1" d="M102,292s-9.86,31.611-14,64c-3.578,27.99-1.409,56.554-2.6,65.865,0.513-4.015.614,1.744,2.6,8.135a95.11,95.11,0,0,0,6,14,62.374,62.374,0,0,0,10,8,55.009,55.009,0,0,0,11,5s9.277,1,17,1a98.3,98.3,0,0,0,14-1s12.288,0.143,20,1c9.99,1.11,17,2,17,2a122.837,122.837,0,0,0,26-7,90.371,90.371,0,0,0,19-11,106,106,0,0,0,5-18,161.685,161.685,0,0,0,2-22s0.313-12.674-.678-29.323A287.172,287.172,0,0,0,230,336c-6.749-34.754-13-47-13-47s-8.734-9.909-21-15c-14.1-5.855-32-7-32-7s-18.5.152-33,6C114.617,279.606,102,292,102,292Z"/>
  <path id="t-1-2-t" class="cls-1" d="M165,14a18.21,18.21,0,0,0-9,4c-4.057,3.549-7,10-7,10a278.692,278.692,0,0,0-9,30c1.563-6.774-20,105-20,105l-10,52s-1.676,10-3,19c-1.166,7.928-2,15-2,15s-1.983,11.818-3,23c-0.983,10.811-1,21-1,21a135.161,135.161,0,0,1,20-15,88.471,88.471,0,0,1,19-8s12.08-3,23-3a67.348,67.348,0,0,1,19,3,71.817,71.817,0,0,1,19,7c8.723,4.846,17,13,17,13L199,167,189,62l-6-32s-2.6-7.089-7-11A23.663,23.663,0,0,0,165,14Z"/>
</svg>
