<svg id="t-1-1" xmlns="http://www.w3.org/2000/svg" width="320" height="480" viewBox="0 0 320 480">
  <metadata><?xpacket begin="﻿" id="W5M0MpCehiHzreSzNTczkc9d"?>
<x:xmpmeta xmlns:x="adobe:ns:meta/" x:xmptk="Adobe XMP Core 5.6-c138 79.159824, 2016/09/14-01:09:01        ">
   <rdf:RDF xmlns:rdf="http://www.w3.org/1999/02/22-rdf-syntax-ns#">
      <rdf:Description rdf:about=""/>
   </rdf:RDF>
</x:xmpmeta>
                                                                                                    
                                                                                                    
                                                                                                    
                                                                                                    
                                                                                                    
                                                                                                    
                                                                                                    
                                                                                                    
                                                                                                    
                                                                                                    
                                                                                                    
                                                                                                    
                                                                                                    
                                                                                                    
                                                                                                    
                                                                                                    
                                                                                                    
                                                                                                    
                                                                                                    
                                                                                                    
                           
<?xpacket end="w"?></metadata>
<defs>
    <style>
      .cls-1 {
        stroke:#000;
        stroke-width:8;
        fill:none;
      }
    </style>
  </defs>
  <path id="t-1-1-b" class="cls-1" d="M107.752,306.956s1.875-30.918,3.059-50.428a144.373,144.373,0,0,1,2.945-19.561s-0.181-2.534,2.621-13.276c4.307-16.511,10.933-42.966,16.832-70.923C142.986,106.43,150.782,56,150.782,56s2.035-7.117,7.29-11.413C163.8,39.9,174.8,36,174.8,36a88.156,88.156,0,0,1,11.617,8.546c1.91,1.718,7.334,25.3,7.423,26.546,1.79,24.92,5.863,76.133,11.79,118.611,6,42.986,16.2,74.259,16.2,74.259s4.322,15.925,4.6,29.8c0.215,10.708,1.405,15.195,1.405,15.195s-4.492-10.488-11.729-17.719c-6.756-6.75-16.29-10.277-16.29-10.277a119.076,119.076,0,0,0-15.546-5.376,177.535,177.535,0,0,0-18.478-3.622s-12.959,3.576-24.817,8.113c-11.657,4.461-22.215,9.884-22.215,9.884a47.314,47.314,0,0,0-6.889,8.092A41.157,41.157,0,0,0,107.752,306.956Z"/>
  <path id="t-1-1-t" class="cls-1" d="M110.754,411.939a46.485,46.485,0,0,1-4.575-19.068c-0.871-29.015,1.573-80.916,1.573-80.916s0.732-7.461,3.474-12.941a28.419,28.419,0,0,1,7.534-9.055s11.546-5.7,23.815-10.3c11.736-4.4,24.218-7.7,24.218-7.7a166.825,166.825,0,0,1,22.862,5.07,130.407,130.407,0,0,1,19.167,7.927,62.878,62.878,0,0,1,12.466,12.116,59.455,59.455,0,0,1,7.548,14.88l9.006,84.986s3.474,6.237-1.622,11.061c-4.352,4.119-17.391,6.936-17.391,6.936a276.179,276.179,0,0,1-43.3,5.006,264.127,264.127,0,0,1-42.757-3.006,45.2,45.2,0,0,1-11.9-.93A45.217,45.217,0,0,1,110.754,411.939Z"/>
</svg>
