<svg id="t-2-1" xmlns="http://www.w3.org/2000/svg" width="320" height="480" viewBox="0 0 320 480">
  <metadata><?xpacket begin="﻿" id="W5M0MpCehiHzreSzNTczkc9d"?>
<x:xmpmeta xmlns:x="adobe:ns:meta/" x:xmptk="Adobe XMP Core 5.6-c138 79.159824, 2016/09/14-01:09:01        ">
   <rdf:RDF xmlns:rdf="http://www.w3.org/1999/02/22-rdf-syntax-ns#">
      <rdf:Description rdf:about=""/>
   </rdf:RDF>
</x:xmpmeta>
                                                                                                    
                                                                                                    
                                                                                                    
                                                                                                    
                                                                                                    
                                                                                                    
                                                                                                    
                                                                                                    
                                                                                                    
                                                                                                    
                                                                                                    
                                                                                                    
                                                                                                    
                                                                                                    
                                                                                                    
                                                                                                    
                                                                                                    
                                                                                                    
                                                                                                    
                                                                                                    
                           
<?xpacket end="w"?></metadata>
<defs>
    <style>
      .cls-1 {
        fill: none;
        stroke: #000;
        stroke-linecap: round;
        stroke-linejoin: round;
        stroke-width: 5px;
        fill-rule: evenodd;
      }
    </style>
  </defs>
  <path id="t-3-1-t" class="cls-1" d="M99.754,411.937a46.488,46.488,0,0,1-4.575-19.071c-0.871-29.019,1.573-80.929,1.573-80.929s0.732-7.462,3.474-12.943a28.426,28.426,0,0,1,7.534-9.057s11.546-5.7,23.815-10.3c11.736-4.4,24.218-7.7,24.218-7.7a166.829,166.829,0,0,1,22.862,5.072,130.35,130.35,0,0,1,19.167,7.928,62.887,62.887,0,0,1,12.466,12.118,59.468,59.468,0,0,1,7.548,14.882l9.006,85s3.474,6.238-1.622,11.063c-4.352,4.119-17.391,6.937-17.391,6.937a276.113,276.113,0,0,1-43.3,5.007,264.063,264.063,0,0,1-42.757-3.007,45.146,45.146,0,0,1-11.9-.93A45.2,45.2,0,0,1,99.754,411.937Z"/>
  <path id="t-3-1-b" class="cls-1" d="M96.752,306.937L99.811,256.5a144.447,144.447,0,0,1,2.945-19.564s-0.181-2.534,2.621-13.278c4.307-16.514,10.933-42.973,16.832-70.935,9.777-46.345,17.573-96.786,17.573-96.786s2.035-7.118,7.29-11.415c5.732-4.686,16.726-8.585,16.726-8.585a88.152,88.152,0,0,1,11.617,8.548c1.91,1.718,7.334,25.3,7.424,26.551,1.789,24.924,5.862,76.146,11.789,118.63,6,42.993,16.2,74.271,16.2,74.271s4.322,15.928,4.6,29.8c0.215,10.709,1.405,15.2,1.405,15.2s-4.492-10.489-11.729-17.721c-6.756-6.751-16.29-10.279-16.29-10.279a119.163,119.163,0,0,0-15.546-5.377,177.68,177.68,0,0,0-18.478-3.623s-12.959,3.577-24.817,8.115c-11.657,4.462-22.215,9.885-22.215,9.885a47.373,47.373,0,0,0-6.889,8.094A41.134,41.134,0,0,0,96.752,306.937Z"/>
</svg>
