<svg id="t-1-3" xmlns="http://www.w3.org/2000/svg" width="320" height="480" viewBox="0 0 320 480">
  <metadata><?xpacket begin="﻿" id="W5M0MpCehiHzreSzNTczkc9d"?>
<x:xmpmeta xmlns:x="adobe:ns:meta/" x:xmptk="Adobe XMP Core 5.6-c138 79.159824, 2016/09/14-01:09:01        ">
   <rdf:RDF xmlns:rdf="http://www.w3.org/1999/02/22-rdf-syntax-ns#">
      <rdf:Description rdf:about=""/>
   </rdf:RDF>
</x:xmpmeta>
                                                                                                    
                                                                                                    
                                                                                                    
                                                                                                    
                                                                                                    
                                                                                                    
                                                                                                    
                                                                                                    
                                                                                                    
                                                                                                    
                                                                                                    
                                                                                                    
                                                                                                    
                                                                                                    
                                                                                                    
                                                                                                    
                                                                                                    
                                                                                                    
                                                                                                    
                                                                                                    
                           
<?xpacket end="w"?></metadata>
<defs>
    <style>
      .cls-1 {
        stroke:#000;
        fill:none;
        stroke-linecap: round;
        stroke-linejoin: round;
        stroke-width: 10px;
        fill-rule: evenodd;
      }
    </style>
  </defs>
  <path id="t-1-3-b" class="cls-1" d="M101,302l-1.92,1.44A2.4,2.4,0,0,0,98,305s-1.98,8.024-4,17c-2.44,10.846-5,23-5,23a144.426,144.426,0,0,0-3,27,187.533,187.533,0,0,0,3,31s0.243,5.556,4,9c5.28,4.84,15.365,11.92,24,19,5.474,4.489,14.239,12.983,19,17,9.44,7.966,13,9,13,9a22,22,0,0,0,4,1,17.181,17.181,0,0,0,4,0s12.1-7.426,25-14c12.6-6.424,26-14,26-14a79.549,79.549,0,0,0,9-6c3.072-2.375,3.34-1.915,5-5,2.3-4.275,8-10,8-10a84.361,84.361,0,0,0,2-16,231.1,231.1,0,0,0-1-24s-2.919-13.521-5-27c-2.128-13.78-5-29-5-29a75.768,75.768,0,0,0-15-16c-12.1-9.284-28-16-28-16l-38-2a146.183,146.183,0,0,0-21,10A146.227,146.227,0,0,0,101,302Z"/>
  <path id="t_1-3-t" data-name="t 1-3-t" class="cls-1" d="M162,14a78.952,78.952,0,0,0-11,13,107.048,107.048,0,0,0-9,18l-15,76-13,64-7,59-7,59s7.821-9.411,17-14a241.4,241.4,0,0,1,24-10s11.943-.464,21,0a145.071,145.071,0,0,1,18,2,180.518,180.518,0,0,1,22,13c9.807,7.041,19,19,19,19s-9.1-65.891-15-111c-3.328-25.461-7-46-7-46s-0.638-9.532-2-23c-2.666-26.366-8-66-8-66s-0.991-10.768-3-18l-5-18a66.807,66.807,0,0,0-5-10,26.474,26.474,0,0,0-7-7s-1.2-2-3-2C164.3,12,162,14,162,14Z"/>
</svg>
