<svg id="t-1-3" xmlns="http://www.w3.org/2000/svg" width="320" height="480" viewBox="0 0 320 480">
  <metadata><?xpacket begin="﻿" id="W5M0MpCehiHzreSzNTczkc9d"?>
<x:xmpmeta xmlns:x="adobe:ns:meta/" x:xmptk="Adobe XMP Core 5.6-c138 79.159824, 2016/09/14-01:09:01        ">
   <rdf:RDF xmlns:rdf="http://www.w3.org/1999/02/22-rdf-syntax-ns#">
      <rdf:Description rdf:about=""/>
   </rdf:RDF>
</x:xmpmeta>
                                                                                                    
                                                                                                    
                                                                                                    
                                                                                                    
                                                                                                    
                                                                                                    
                                                                                                    
                                                                                                    
                                                                                                    
                                                                                                    
                                                                                                    
                                                                                                    
                                                                                                    
                                                                                                    
                                                                                                    
                                                                                                    
                                                                                                    
                                                                                                    
                                                                                                    
                                                                                                    
                           
<?xpacket end="w"?></metadata>
<defs>
    <style>
      .cls-1 {
        fill: none;
        stroke: #000;
        stroke-linecap: round;
        stroke-linejoin: round;
        stroke-width: 7px;
        fill-rule: evenodd;
      }
    </style>
  </defs>
  <path id="t-1-3-b" class="cls-1" d="M99,307.518l-1.92,1.388A2.3,2.3,0,0,0,96,310.41s-1.98,7.734-4,16.385c-2.44,10.454-5,22.169-5,22.169a134.441,134.441,0,0,0-3,26.024,174.509,174.509,0,0,0,3,29.879s0.242,5.355,4,8.675c5.278,4.665,15.362,11.489,23.994,18.313,5.474,4.327,14.237,12.514,19,16.386,9.438,7.678,13,8.675,13,8.675a22.686,22.686,0,0,0,4,.964,17.848,17.848,0,0,0,4,0s12.1-7.158,24.994-13.494c12.6-6.193,25.995-13.494,25.995-13.494a79.914,79.914,0,0,0,9-5.784c3.071-2.289,3.34-1.845,5-4.819,2.3-4.121,8-9.638,8-9.638a78.568,78.568,0,0,0,2-15.422,215.062,215.062,0,0,0-1-23.133s-2.918-13.032-5-26.024c-2.128-13.282-5-27.952-5-27.952a74.059,74.059,0,0,0-15-15.421c-12.094-8.948-27.994-15.422-27.994-15.422l-37.992-1.928a148.718,148.718,0,0,0-21,9.639A146.042,146.042,0,0,0,99,307.518Z"/>
  <path id="t_1-3-t" data-name="t 1-3-t" class="cls-1" d="M159.984,29.928a76.98,76.98,0,0,0-11,12.53,101.635,101.635,0,0,0-9,17.349l-15,73.253-13,61.687-7,56.867-7,56.868s7.82-9.071,17-13.494a246.793,246.793,0,0,1,24-9.639s11.941-.447,21,0a150.238,150.238,0,0,1,18,1.928,182.31,182.31,0,0,1,22,12.53c9.805,6.787,19,18.313,19,18.313s-9.1-63.509-15-106.987c-3.327-24.541-7-44.338-7-44.338s-0.638-9.187-2-22.169c-2.665-25.413-8-63.614-8-63.614s-0.991-10.379-3-17.349c-2.843-9.866-5-17.349-5-17.349a63.5,63.5,0,0,0-5-9.638,26.072,26.072,0,0,0-7-6.747s-1.2-1.928-3-1.928C162.288,28,159.984,29.928,159.984,29.928Z"/>
</svg>
