<svg id="t-1-4" xmlns="http://www.w3.org/2000/svg" width="320" height="480" viewBox="0 0 320 480">
  <metadata><?xpacket begin="﻿" id="W5M0MpCehiHzreSzNTczkc9d"?>
<x:xmpmeta xmlns:x="adobe:ns:meta/" x:xmptk="Adobe XMP Core 5.6-c138 79.159824, 2016/09/14-01:09:01        ">
   <rdf:RDF xmlns:rdf="http://www.w3.org/1999/02/22-rdf-syntax-ns#">
      <rdf:Description rdf:about=""/>
   </rdf:RDF>
</x:xmpmeta>
                                                                                                    
                                                                                                    
                                                                                                    
                                                                                                    
                                                                                                    
                                                                                                    
                                                                                                    
                                                                                                    
                                                                                                    
                                                                                                    
                                                                                                    
                                                                                                    
                                                                                                    
                                                                                                    
                                                                                                    
                                                                                                    
                                                                                                    
                                                                                                    
                                                                                                    
                                                                                                    
                           
<?xpacket end="w"?></metadata>
<defs>
    <style>
      .cls-1 {
        stroke:#000;
        fill:none;
        stroke-linecap: round;
        stroke-linejoin: round;
        stroke-width: 10px;
        fill-rule: evenodd;
      }
    </style>
  </defs>
  <path id="t-1-4-b" class="cls-1" d="M99,311c-0.583-.607-3.347.843-6,8a166.912,166.912,0,0,0-6.076,22.428C85.511,352.489,85.959,351.441,85,367c-1.13,18.345-4,37-4,37,0.776,0.436,1.18,3.481,2,7,1.574,6.754,7,15,7,15a21.868,21.868,0,0,0,7,7c6.03,3.837,13,8,13,8-0.14-.017,11.767,5.98,16.859,7.863,7.853,2.9,8.619,3.809,16.141,6.137a127.392,127.392,0,0,0,14,3,7.253,7.253,0,0,0,5.6-.178C172.716,453.888,193,444,193,444s7.836-3.4,14-7c5.826-3.4,14-7,14-7s2-5.5,4.713-15c2.241-7.843,2.287-18,2.287-18a130.256,130.256,0,0,0-1.573-15.6c-1.031-6.537-2.2-14.353-3.184-21.868C221.082,342.961,220,328,220,328a48.655,48.655,0,0,0-4.293-9.661A47.414,47.414,0,0,0,209,310a135.7,135.7,0,0,0-14.668-10.184A105.858,105.858,0,0,0,180,293a31.334,31.334,0,0,0-8.114-2.823A79.725,79.725,0,0,0,160,289a57.644,57.644,0,0,0-10.231-.555A100.945,100.945,0,0,0,137,290a81.805,81.805,0,0,0-19.123,6.561C108.419,301.291,99,311,99,311Z"/>
  <path id="t-1-4-t" class="cls-1" d="M153,64a23.758,23.758,0,0,0-4.468,3.468A30.725,30.725,0,0,0,145,72a72.329,72.329,0,0,0-5.528,8.552A50.988,50.988,0,0,0,136,89s-11.045,52.34-19.311,96.236C110.91,215.926,107,243,107,243l-8,67s8.326-7.535,15.521-11.556A80.909,80.909,0,0,1,133,291a34.354,34.354,0,0,1,7.523-1.885A54.418,54.418,0,0,1,150,289a77.941,77.941,0,0,1,11.3.13A44.378,44.378,0,0,1,170,291a36.209,36.209,0,0,1,15.323,3.462C194.447,298.633,210,311,210,311s-14.224-49.5-20.051-83.663C184.821,197.267,183,178,183,178s-2.948-20.057-3.92-37.566c-0.475-8.544.473-15.554,0.553-21.694A100.051,100.051,0,0,0,179,106a158.324,158.324,0,0,0-2.714-16.474A32.907,32.907,0,0,0,173,81a40.539,40.539,0,0,0-4.641-8.811A66.685,66.685,0,0,0,160,63a5.844,5.844,0,0,0-3.128-.553A11.677,11.677,0,0,0,153,64Z"/>
</svg>
