<svg id="t-1-4" xmlns="http://www.w3.org/2000/svg" width="320" height="480" viewBox="0 0 320 480">
  <metadata><?xpacket begin="﻿" id="W5M0MpCehiHzreSzNTczkc9d"?>
<x:xmpmeta xmlns:x="adobe:ns:meta/" x:xmptk="Adobe XMP Core 5.6-c138 79.159824, 2016/09/14-01:09:01        ">
   <rdf:RDF xmlns:rdf="http://www.w3.org/1999/02/22-rdf-syntax-ns#">
      <rdf:Description rdf:about=""/>
   </rdf:RDF>
</x:xmpmeta>
                                                                                                    
                                                                                                    
                                                                                                    
                                                                                                    
                                                                                                    
                                                                                                    
                                                                                                    
                                                                                                    
                                                                                                    
                                                                                                    
                                                                                                    
                                                                                                    
                                                                                                    
                                                                                                    
                                                                                                    
                                                                                                    
                                                                                                    
                                                                                                    
                                                                                                    
                                                                                                    
                           
<?xpacket end="w"?></metadata>
<defs>
    <style>
      .cls-1 {
        fill: none;
        stroke: #000;
        stroke-linecap: round;
        stroke-linejoin: round;
        stroke-width: 7px;
        fill-rule: evenodd;
      }
    </style>
  </defs>
  <path id="t-1-4-b" class="cls-1" d="M106,310.574c-0.583-.607-3.347.843-6,8A166.908,166.908,0,0,0,93.924,341c-1.413,11.06-.965,10.012-1.924,25.57-1.13,18.343-4,37-4,37,0.776,0.436,1.18,3.48,2,7,1.574,6.753,7,15,7,15a21.86,21.86,0,0,0,7,7c6.029,3.837,13,8,13,8-0.14-.017,11.767,5.98,16.859,7.863,7.853,2.9,8.619,3.808,16.141,6.136a127.392,127.392,0,0,0,14,3,7.253,7.253,0,0,0,5.6-.178c10.116-3.934,30.4-13.821,30.4-13.821s7.836-3.4,14-7c5.826-3.4,14-7,14-7s2-5.5,4.713-15c2.241-7.842,2.287-18,2.287-18a130.251,130.251,0,0,0-1.573-15.6c-1.031-6.536-2.2-14.352-3.184-21.866C228.082,342.533,227,327.573,227,327.573a48.655,48.655,0,0,0-4.293-9.661A47.43,47.43,0,0,0,216,309.574a135.768,135.768,0,0,0-14.668-10.183A105.782,105.782,0,0,0,187,292.576a31.291,31.291,0,0,0-8.114-2.823A79.725,79.725,0,0,0,167,288.576a57.654,57.654,0,0,0-10.231-.555A100.945,100.945,0,0,0,144,289.576a81.805,81.805,0,0,0-19.123,6.561C115.419,300.866,106,310.574,106,310.574Z"/>
  <path id="t-1-4-t" class="cls-1" d="M160,63.594a23.758,23.758,0,0,0-4.468,3.467A30.724,30.724,0,0,0,152,71.593a72.318,72.318,0,0,0-5.528,8.551A50.983,50.983,0,0,0,143,88.592s-11.045,52.336-19.311,96.228C117.91,215.508,114,242.579,114,242.579l-8,67s8.326-7.534,15.521-11.555A80.876,80.876,0,0,1,140,290.576a34.354,34.354,0,0,1,7.523-1.885,54.418,54.418,0,0,1,9.477-.115,77.941,77.941,0,0,1,11.3.13,44.378,44.378,0,0,1,8.7,1.87,36.216,36.216,0,0,1,15.323,3.461C201.447,298.208,217,310.574,217,310.574s-14.224-49.492-20.051-83.657C191.821,196.85,190,177.585,190,177.585s-2.948-20.055-3.92-37.564c-0.475-8.543.473-15.552,0.553-21.692A100.043,100.043,0,0,0,186,105.59a158.294,158.294,0,0,0-2.714-16.472A32.945,32.945,0,0,0,180,80.592a40.533,40.533,0,0,0-4.641-8.81A66.677,66.677,0,0,0,167,62.594a5.844,5.844,0,0,0-3.128-.553A11.677,11.677,0,0,0,160,63.594Z"/>
</svg>
