<svg id="t-1-5" xmlns="http://www.w3.org/2000/svg" width="320" height="480" viewBox="0 0 320 480">
  <metadata><?xpacket begin="﻿" id="W5M0MpCehiHzreSzNTczkc9d"?>
<x:xmpmeta xmlns:x="adobe:ns:meta/" x:xmptk="Adobe XMP Core 5.6-c138 79.159824, 2016/09/14-01:09:01        ">
   <rdf:RDF xmlns:rdf="http://www.w3.org/1999/02/22-rdf-syntax-ns#">
      <rdf:Description rdf:about=""/>
   </rdf:RDF>
</x:xmpmeta>
                                                                                                    
                                                                                                    
                                                                                                    
                                                                                                    
                                                                                                    
                                                                                                    
                                                                                                    
                                                                                                    
                                                                                                    
                                                                                                    
                                                                                                    
                                                                                                    
                                                                                                    
                                                                                                    
                                                                                                    
                                                                                                    
                                                                                                    
                                                                                                    
                                                                                                    
                                                                                                    
                           
<?xpacket end="w"?></metadata>
<defs>
    <style>
      .cls-1 {
        fill: none;
        stroke: #000;
        stroke-linecap: round;
        stroke-linejoin: round;
        stroke-width: 6.99px;
        fill-rule: evenodd;
      }
    </style>
  </defs>
  <path id="t-1-5-2" data-name="t-1-5" class="cls-1" d="M106,292.826a116.642,116.642,0,0,1,18.738-9.479A91.3,91.3,0,0,1,143,278.81a72.122,72.122,0,0,1,15.848-2,99.632,99.632,0,0,1,18.152,2,174.678,174.678,0,0,1,17.579,10.854A210.022,210.022,0,0,1,212,303.838s4.852,12.05,8.362,23.944A194.868,194.868,0,0,1,225,347.887s1.7,12.073,2.423,25.594c0.571,10.659,1.594,19.148,1.577,24.462-0.006,1.9-2,6.007-2,6.007l-26.986,17.858C184.476,432.091,168,445,168,445l-11,4h-8a286.658,286.658,0,0,1-30.9-21.8c-10.867-8.948-21.176-19.086-26.768-24.772-2.728-2.774-4.334-10.5-4.334-10.5s0.042-12.127,1-32.035a443.967,443.967,0,0,1,5-45.051,47.467,47.467,0,0,1,5.231-12.376A61.542,61.542,0,0,1,106,292.826Z"/>
  <path id="t-1-5-t1" class="cls-1" d="M204,71.579L207,88.6l-1,23.025s-2.506,34.836-2.01,69.9c0.5,35.515,4.01,71.262,4.01,71.262l5,52.058s-7.469-6.753-14.4-12.09a128.839,128.839,0,0,0-11.6-7.932,32.1,32.1,0,0,0-6.329-3.264A37.75,37.75,0,0,0,173,279.811a74.5,74.5,0,0,0-15.9-2,76.738,76.738,0,0,0-16.1,2,201.333,201.333,0,0,0-19.742,6.3A135.656,135.656,0,0,0,105,293.827s3.842-20.675,8.358-39.024C117.3,238.77,122,224.75,122,224.75s4.818-22.485,16.443-52.666c9.81-25.467,21.6-56.293,30.584-76.8A211.821,211.821,0,0,1,181,71.579l9-7.008s4.755-2.125,8.375-.313C201.746,65.945,204,71.579,204,71.579Z"/>
  <path id="t-1-5-t2" class="cls-1" d="M120,221.746s-6.29-52.462-6-95.106a224.871,224.871,0,0,1,7-52.058l6-14.016s2.939-3.3,5.63-3.567c2.273-.228,4.37,2.566,4.37,2.566a37.092,37.092,0,0,1,6.332,7.45c2,3.163,4.668,14.574,4.668,14.574s2.424,7.946,4.885,18.048c2.538,10.417,4.115,19.995,4.115,19.995L121,224.75s0.632,3.635,0,3C120.161,226.913,120,221.746,120,221.746Z"/>
</svg>
