<svg id="t-2-7_" data-name="t-2-7 " xmlns="http://www.w3.org/2000/svg" width="320" height="480" viewBox="0 0 320 480">
  <metadata><?xpacket begin="﻿" id="W5M0MpCehiHzreSzNTczkc9d"?>
<x:xmpmeta xmlns:x="adobe:ns:meta/" x:xmptk="Adobe XMP Core 5.6-c138 79.159824, 2016/09/14-01:09:01        ">
   <rdf:RDF xmlns:rdf="http://www.w3.org/1999/02/22-rdf-syntax-ns#">
      <rdf:Description rdf:about=""/>
   </rdf:RDF>
</x:xmpmeta>
                                                                                                    
                                                                                                    
                                                                                                    
                                                                                                    
                                                                                                    
                                                                                                    
                                                                                                    
                                                                                                    
                                                                                                    
                                                                                                    
                                                                                                    
                                                                                                    
                                                                                                    
                                                                                                    
                                                                                                    
                                                                                                    
                                                                                                    
                                                                                                    
                                                                                                    
                                                                                                    
                           
<?xpacket end="w"?></metadata>
<defs>
    <style>
      .cls-1 {
        fill: none;
        stroke: #000;
        stroke-linecap: round;
        stroke-linejoin: round;
        stroke-width: 7px;
        fill-rule: evenodd;
      }
    </style>
  </defs>
  <path id="t-2-7-b" class="cls-1" d="M236.356,260.857S246.438,276.71,251,301.209a489.541,489.541,0,0,1,6.908,58.809,67.313,67.313,0,0,1-.5,13.948,45.291,45.291,0,0,1-5.477,13.429,62.834,62.834,0,0,1-11.563,12.6,37.414,37.414,0,0,1-8.216,5.144A74.178,74.178,0,0,1,220.318,409s-8.065-1.776-15.7-4.4a127.32,127.32,0,0,1-13.37-5.605s-6.448,2.884-12.361,4.928c-7.021,2.427-13.7,4.081-13.7,4.081a83.647,83.647,0,0,1-12.891-2.8,77.3,77.3,0,0,1-12.168-5.21,28.705,28.705,0,0,1-7.554,3.992A85.492,85.492,0,0,1,120.084,407a58.672,58.672,0,0,1-10-.684A17.193,17.193,0,0,1,104.047,404a69.907,69.907,0,0,1-9.529-9.016,73.639,73.639,0,0,1-7.511-11A122.927,122.927,0,0,1,84.228,349.3c1.711-27.341,8.793-61.421,8.793-61.421A59.782,59.782,0,0,1,97.4,277.112a53.537,53.537,0,0,1,6.647-9.248,108.555,108.555,0,0,1,18.824-13.82,172.17,172.17,0,0,1,25.279-11.2,57.173,57.173,0,0,1,9.832-1.492,60.7,60.7,0,0,1,10.215.491,103.177,103.177,0,0,0,12.518,3.175,61.711,61.711,0,0,0,10.535.829l13.031,5.005,13.03-1a70.639,70.639,0,0,1,11.359,4.986A37.4,37.4,0,0,1,236.356,260.857Z"/>
  <path id="t-2-7-t" class="cls-1" d="M219.316,65.67a18.932,18.932,0,0,1,7.015,6.5c2.506,4.255,3.008,10.512,3.008,10.512s2.095,9.686,3.259,21.083c1.331,13.018,2.755,27.964,2.755,27.964a134.769,134.769,0,0,1,2.785,24.087c0.078,2.611.119,9.328,0.133,12.065,0.083,17,.089,28.911.089,28.911a186.164,186.164,0,0,1,.69,19.4c-0.3,18.208-2.694,44.666-2.694,44.666a56.338,56.338,0,0,0-16.716-9.545c-4.933-1.833-12.351-1.711-17.594-3.272a122.1,122.1,0,0,0-22.824-4.2,114.328,114.328,0,0,0-18.386-2,54.175,54.175,0,0,0-14.691,2A155.634,155.634,0,0,0,122,254.693a112.823,112.823,0,0,0-18.958,14.172,178.946,178.946,0,0,1-3.706-19.828c-1.976-15.225-2.308-35.225-2.308-35.225a158.482,158.482,0,0,1-.891-19.452c0.1-8.139,1.289-17.836,1.635-27.061,0.663-17.644,2.262-33.564,2.262-33.564s3.47-20.819,7.691-39.525a222.375,222.375,0,0,1,9.349-30.543l5.012-8.008s2.262-2.68,4.637-3.391a8.962,8.962,0,0,1,5.386.388,4.237,4.237,0,0,1,3.672.617c1.7,1.211,3.345,4.388,3.345,4.388l3.007,13.013,4.009,44.043s0.969,24.454,6.014,45.043c3.568,14.56,7.379,33.836,11.026,43.041,2.829,7.14,6.014,6.006,6.014,6.006s9.327-6.113,16.037-20.019c4.842-10.034,9.567-24.986,12.028-37.036,1.35-6.608,2.589-14.309,3.634-21.476a219.972,219.972,0,0,0,2.38-34.578,118.434,118.434,0,0,1,2.41-16.632,40,40,0,0,1,4.607-11.4s2.355-2.525,4.658-3.036A6.252,6.252,0,0,1,219.316,65.67Z"/>
</svg>
