<svg id="t-1-6" xmlns="http://www.w3.org/2000/svg" width="320" height="480" viewBox="0 0 320 480">
  <metadata><?xpacket begin="﻿" id="W5M0MpCehiHzreSzNTczkc9d"?>
<x:xmpmeta xmlns:x="adobe:ns:meta/" x:xmptk="Adobe XMP Core 5.6-c138 79.159824, 2016/09/14-01:09:01        ">
   <rdf:RDF xmlns:rdf="http://www.w3.org/1999/02/22-rdf-syntax-ns#">
      <rdf:Description rdf:about=""/>
   </rdf:RDF>
</x:xmpmeta>
                                                                                                    
                                                                                                    
                                                                                                    
                                                                                                    
                                                                                                    
                                                                                                    
                                                                                                    
                                                                                                    
                                                                                                    
                                                                                                    
                                                                                                    
                                                                                                    
                                                                                                    
                                                                                                    
                                                                                                    
                                                                                                    
                                                                                                    
                                                                                                    
                                                                                                    
                                                                                                    
                           
<?xpacket end="w"?></metadata>
<defs>
    <style>
      .cls-1 {
        fill: none;
        stroke: red;
        stroke-linecap: round;
        stroke-linejoin: round;
        stroke-width: 2px;
        fill-rule: evenodd;
      }
    </style>
  </defs>
  <path id="t-1-6-t1" class="cls-1" d="M109,108a18.906,18.906,0,0,0-7,6.5c-2.5,4.251-3,10.5-3,10.5s-2.09,9.677-3.251,21.063C94.422,159.069,93,174,93,174a134.853,134.853,0,0,0-2.778,24.063c-0.078,2.609-.119,9.32-0.133,12.054C90.006,227.106,90,239,90,239a186.314,186.314,0,0,0-.687,19.377C89.606,276.567,92,303,92,303a56.186,56.186,0,0,1,16.677-9.536c4.922-1.831,12.322-1.709,17.553-3.269A121.63,121.63,0,0,1,149,286a113.928,113.928,0,0,1,18.343-2A53.982,53.982,0,0,1,182,286a155.2,155.2,0,0,1,24.087,10.841A112.547,112.547,0,0,1,225,311a178.943,178.943,0,0,0,3.7-19.809C230.669,275.981,231,256,231,256a158.645,158.645,0,0,0,.889-19.434c-0.1-8.13-1.286-17.818-1.632-27.035C229.6,191.905,228,176,228,176s-3.462-20.8-7.673-39.487A222.381,222.381,0,0,0,211,106l-5-8s-2.257-2.677-4.626-3.388A8.931,8.931,0,0,0,196,95a4.221,4.221,0,0,0-3.663.617C190.643,96.827,189,100,189,100l-3,13-4,44s-0.967,24.431-6,45c-3.559,14.546-7.361,33.8-11,43-2.822,7.133-6,6-6,6s-9.305-6.107-16-20c-4.831-10.024-9.544-24.961-12-37-1.347-6.6-2.582-14.3-3.626-21.456A220.072,220.072,0,0,1,125,138a118.268,118.268,0,0,0-2.4-16.615A39.972,39.972,0,0,0,118,110s-2.35-2.522-4.648-3.033A6.228,6.228,0,0,0,109,108Z"/>
  <path id="t-1-6-t2" class="cls-1" d="M132,200s4.722-20.917,5.3-51.18C137.681,128.722,134,95,134,95s-0.6-9.4,2.577-12.577A13.287,13.287,0,0,1,143,79s3.28-1.576,7.267,1.614C153.745,83.4,158,91,158,91l21,71,2,10s-4.838,31.109-9.754,50.53a200.278,200.278,0,0,1-5.639,19.264C162.938,248.848,161,251,161,251s-5.658.532-13.1-12.562C140.853,226.052,132,200,132,200Z"/>
  <path id="t-1-6-b" class="cls-1" d="M92,303s-10.058,15.837-14.607,40.313A489.575,489.575,0,0,0,70.5,402.066,67.291,67.291,0,0,0,71,416a45.278,45.278,0,0,0,5.464,13.416A62.728,62.728,0,0,0,88,442a37.359,37.359,0,0,0,8.2,5.139A74,74,0,0,0,108,451s8.046-1.775,15.662-4.4A126.765,126.765,0,0,0,137,441s6.433,2.881,12.332,4.923C156.338,448.348,163,450,163,450a83.353,83.353,0,0,0,12.861-2.8A77.083,77.083,0,0,0,188,442a28.652,28.652,0,0,0,7.536,3.988A85.089,85.089,0,0,0,208,449a58.468,58.468,0,0,0,9.976-.683A17.125,17.125,0,0,0,224,446a69.785,69.785,0,0,0,9.506-9.007A73.615,73.615,0,0,0,241,426a122.979,122.979,0,0,0,2.773-34.638C242.065,364.047,235,330,235,330a59.782,59.782,0,0,0-4.368-10.761A53.488,53.488,0,0,0,224,310a108.365,108.365,0,0,0-18.78-13.807A171.707,171.707,0,0,0,180,285a56.921,56.921,0,0,0-9.809-1.49A60.354,60.354,0,0,0,160,284a102.819,102.819,0,0,1-12.489,3.172A61.486,61.486,0,0,1,137,288l-13,5-13-1a70.37,70.37,0,0,0-11.332,4.982A37.3,37.3,0,0,0,92,303Z"/>
</svg>
