<svg id="t-1-7" xmlns="http://www.w3.org/2000/svg" width="320" height="480" viewBox="0 0 320 480">
  <metadata><?xpacket begin="﻿" id="W5M0MpCehiHzreSzNTczkc9d"?>
<x:xmpmeta xmlns:x="adobe:ns:meta/" x:xmptk="Adobe XMP Core 5.6-c138 79.159824, 2016/09/14-01:09:01        ">
   <rdf:RDF xmlns:rdf="http://www.w3.org/1999/02/22-rdf-syntax-ns#">
      <rdf:Description rdf:about=""/>
   </rdf:RDF>
</x:xmpmeta>
                                                                                                    
                                                                                                    
                                                                                                    
                                                                                                    
                                                                                                    
                                                                                                    
                                                                                                    
                                                                                                    
                                                                                                    
                                                                                                    
                                                                                                    
                                                                                                    
                                                                                                    
                                                                                                    
                                                                                                    
                                                                                                    
                                                                                                    
                                                                                                    
                                                                                                    
                                                                                                    
                           
<?xpacket end="w"?></metadata>
<defs>
    <style>
      .cls-1 {
        fill: none;
        stroke: red;
        stroke-linecap: round;
        stroke-linejoin: round;
        stroke-width: 2px;
        fill-rule: evenodd;
      }
    </style>
  </defs>
  <g id="t-1-8">
    <path id="t-1-8-b" class="cls-1" d="M229.356,302.614S239.438,318.492,244,343.031a491.151,491.151,0,0,1,6.908,58.907,67.541,67.541,0,0,1-.5,13.971,45.413,45.413,0,0,1-5.477,13.451,62.9,62.9,0,0,1-11.563,12.616,37.419,37.419,0,0,1-8.216,5.153A74.057,74.057,0,0,1,213.318,451a162.939,162.939,0,0,1-15.7-4.412,127.261,127.261,0,0,1-13.37-5.614s-6.448,2.888-12.361,4.935c-7.021,2.432-13.7,4.088-13.7,4.088a83.51,83.51,0,0,1-12.891-2.8,77.274,77.274,0,0,1-12.168-5.219,28.7,28.7,0,0,1-7.554,4A85.4,85.4,0,0,1,113.084,449a58.608,58.608,0,0,1-10-.685,17.173,17.173,0,0,1-6.038-2.323,69.907,69.907,0,0,1-9.528-9.031,73.759,73.759,0,0,1-7.511-11.021,123.327,123.327,0,0,1-2.779-34.729c1.711-27.386,8.793-61.522,8.793-61.522A59.934,59.934,0,0,1,90.4,318.9a53.653,53.653,0,0,1,6.647-9.263,108.578,108.578,0,0,1,18.824-13.843,172.075,172.075,0,0,1,25.279-11.222,57.125,57.125,0,0,1,9.832-1.5,60.518,60.518,0,0,1,10.215.492,102.907,102.907,0,0,0,12.518,3.18,61.654,61.654,0,0,0,10.535.83l13.031,5.013,13.03-1a70.544,70.544,0,0,1,11.359,4.994A37.427,37.427,0,0,1,229.356,302.614Z"/>
    <path id="t-1-8-t1" class="cls-1" d="M212.225,107.678a18.947,18.947,0,0,1,7.019,6.508c2.507,4.258,3.01,10.519,3.01,10.519s2.095,9.692,3.26,21.1c1.331,13.026,2.757,27.982,2.757,27.982a134.973,134.973,0,0,1,2.786,24.1c0.078,2.613.119,9.335,0.133,12.073,0.083,17.016.089,28.929,0.089,28.929a186.388,186.388,0,0,1,.69,19.407c-0.295,18.219-2.695,44.694-2.695,44.694a56.367,56.367,0,0,0-16.725-9.551c-4.936-1.834-12.357-1.712-17.6-3.274a122.069,122.069,0,0,0-22.835-4.2,114.4,114.4,0,0,0-18.4-2,54.2,54.2,0,0,0-14.7,2,155.691,155.691,0,0,0-24.155,10.859A112.9,112.9,0,0,0,95.895,311a179.025,179.025,0,0,1-3.708-19.84c-1.977-15.235-2.309-35.247-2.309-35.247a158.608,158.608,0,0,1-.892-19.465c0.1-8.143,1.29-17.846,1.636-27.078,0.663-17.654,2.264-33.584,2.264-33.584s3.472-20.832,7.7-39.55a222.415,222.415,0,0,1,9.353-30.561l5.015-8.013s2.263-2.681,4.639-3.393a8.965,8.965,0,0,1,5.389.388,4.239,4.239,0,0,1,3.674.618c1.7,1.212,3.346,4.39,3.346,4.39l3.009,13.021,4.011,44.07s0.97,24.469,6.017,45.071c3.569,14.569,7.383,33.857,11.032,43.068,2.83,7.144,6.017,6.01,6.017,6.01s9.331-6.117,16.045-20.032c4.845-10.04,9.572-25,12.034-37.059,1.351-6.612,2.59-14.318,3.636-21.49a220.174,220.174,0,0,0,2.381-34.6,118.472,118.472,0,0,1,2.411-16.641,40.048,40.048,0,0,1,4.609-11.4s2.357-2.526,4.661-3.038A6.256,6.256,0,0,1,212.225,107.678Z"/>
    <path id="t-1-8-t2" class="cls-1" d="M189,201.111s-4.722-20.871-5.3-51.069c-0.382-20.054,3.3-53.7,3.3-53.7s0.6-9.377-2.577-12.55A13.3,13.3,0,0,0,178,80.374s-3.28-1.573-7.267,1.61C167.255,84.761,163,92.348,163,92.348l-21,70.846-2,9.978s4.838,31.041,9.755,50.42a199.244,199.244,0,0,0,5.638,19.222C158.062,249.853,160,252,160,252s5.658,0.531,13.1-12.535C180.147,227.106,189,201.111,189,201.111Z"/>
  </g>
</svg>
