<svg id="t-2-1" xmlns="http://www.w3.org/2000/svg" width="320" height="480" viewBox="0 0 320 480">
  <metadata><?xpacket begin="﻿" id="W5M0MpCehiHzreSzNTczkc9d"?>
<x:xmpmeta xmlns:x="adobe:ns:meta/" x:xmptk="Adobe XMP Core 5.6-c138 79.159824, 2016/09/14-01:09:01        ">
   <rdf:RDF xmlns:rdf="http://www.w3.org/1999/02/22-rdf-syntax-ns#">
      <rdf:Description rdf:about=""/>
   </rdf:RDF>
</x:xmpmeta>
                                                                                                    
                                                                                                    
                                                                                                    
                                                                                                    
                                                                                                    
                                                                                                    
                                                                                                    
                                                                                                    
                                                                                                    
                                                                                                    
                                                                                                    
                                                                                                    
                                                                                                    
                                                                                                    
                                                                                                    
                                                                                                    
                                                                                                    
                                                                                                    
                                                                                                    
                                                                                                    
                           
<?xpacket end="w"?></metadata>
<defs>
    <style>
      .cls-1 {
        stroke:#000;
        fill:none;
        stroke-linecap: round;
        stroke-linejoin: round;
        stroke-width: 10px;
        fill-rule: evenodd;
      }
    </style>
  </defs>
  <path id="t-3-1-t" class="cls-1" d="M233.246,411.938a46.5,46.5,0,0,0,4.575-19.072c0.871-29.019-1.573-80.928-1.573-80.928s-0.732-7.463-3.474-12.944a28.416,28.416,0,0,0-7.534-9.056s-11.546-5.7-23.815-10.3c-11.736-4.4-24.218-7.7-24.218-7.7a166.741,166.741,0,0,0-22.862,5.071,130.294,130.294,0,0,0-19.167,7.929,62.865,62.865,0,0,0-12.466,12.117,59.466,59.466,0,0,0-7.548,14.883l-9.006,85s-3.474,6.237,1.622,11.062c4.352,4.119,17.391,6.938,17.391,6.938a276.179,276.179,0,0,0,43.3,5.006,264.127,264.127,0,0,0,42.757-3.006,45.172,45.172,0,0,0,11.9-.931A45.217,45.217,0,0,0,233.246,411.938Z"/>
  <path id="t-3-1-b" class="cls-1" d="M236.248,306.938s-1.875-30.924-3.059-50.437a144.4,144.4,0,0,0-2.945-19.563s0.181-2.535-2.621-13.279c-4.307-16.514-10.933-42.973-16.832-70.935-9.777-46.345-17.573-96.786-17.573-96.786s-2.035-7.118-7.29-11.415C180.2,39.836,169.2,35.938,169.2,35.938a88.163,88.163,0,0,0-11.617,8.548c-1.91,1.718-7.334,25.3-7.423,26.551-1.79,24.924-5.863,76.146-11.79,118.63-6,42.993-16.2,74.272-16.2,74.272s-4.322,15.927-4.6,29.8c-0.215,10.709-1.4,15.2-1.4,15.2s4.492-10.49,11.729-17.722c6.756-6.751,16.29-10.278,16.29-10.278a119.078,119.078,0,0,1,15.546-5.378,177.535,177.535,0,0,1,18.478-3.622s12.959,3.576,24.817,8.114c11.657,4.462,22.215,9.886,22.215,9.886a47.343,47.343,0,0,1,6.889,8.093A41.15,41.15,0,0,1,236.248,306.938Z"/>
</svg>
