<svg id="t-2-3" xmlns="http://www.w3.org/2000/svg" width="320" height="480" viewBox="0 0 320 480">
  <metadata><?xpacket begin="﻿" id="W5M0MpCehiHzreSzNTczkc9d"?>
<x:xmpmeta xmlns:x="adobe:ns:meta/" x:xmptk="Adobe XMP Core 5.6-c138 79.159824, 2016/09/14-01:09:01        ">
   <rdf:RDF xmlns:rdf="http://www.w3.org/1999/02/22-rdf-syntax-ns#">
      <rdf:Description rdf:about=""/>
   </rdf:RDF>
</x:xmpmeta>
                                                                                                    
                                                                                                    
                                                                                                    
                                                                                                    
                                                                                                    
                                                                                                    
                                                                                                    
                                                                                                    
                                                                                                    
                                                                                                    
                                                                                                    
                                                                                                    
                                                                                                    
                                                                                                    
                                                                                                    
                                                                                                    
                                                                                                    
                                                                                                    
                                                                                                    
                                                                                                    
                           
<?xpacket end="w"?></metadata>
<defs>
    <style>
      .cls-1 {
        stroke:#000;
        fill:none;
        stroke-linecap: round;
        stroke-linejoin: round;
        stroke-width: 10px;
        fill-rule: evenodd;
      }
    </style>
  </defs>
  <path id="t-3-3-b" class="cls-1" d="M195.977,148.3c-4.784-49.354-15.879-95.416-15.037-95.09L172.921,41.2s-12.611-14.532-17.042-6.006c2.12-4.08-11.715,8.005-14.034,33.031-1.042,11.242-3.759,26.426-5.012,45.042-0.373,5.525-6.77,64.672-11.027,103.1-1.665,15.025-5.928,49.557-7.017,60.057-0.962,9.26-3.853,16.235-4.01,19.018-0.1,1.845,1.322-.319,5.735-4.726,6.768-6.758,16.319-10.288,16.319-10.288a119.218,119.218,0,0,1,15.573-5.382,177.947,177.947,0,0,1,18.51-3.627s12.982,3.58,24.86,8.123c11.678,4.465,22.255,14.9,22.255,14.9-0.216-.137-2.786-32.03-8.02-66.063C204.852,194.828,197.035,159.215,195.977,148.3Z"/>
  <path id="t-3-3-t" class="cls-1" d="M222.041,391.529c9.6-6.037,7.3-5.864,7.017-21.02-0.559-29.615-11.814-83.284-11.027-73.069-0.2-2.625-3.008-8.008-3.008-8.008a112.564,112.564,0,0,0-20.849-10.309,112.094,112.094,0,0,0-24.261-5.706,80.17,80.17,0,0,0-22.9,3.074,130.614,130.614,0,0,0-19.2,7.936s-13.374,8.781-14.035,14.014c-8.607,68.189-12.27,82.4-6.469,86.532,4.056,2.887,9.956,11.627,15.491,16.565,36.213,32.3,29.02,23.916,43.106,20.019C191.216,414.554,222.041,391.529,222.041,391.529Z"/>
</svg>
