<svg id="t-1-5" xmlns="http://www.w3.org/2000/svg" width="320" height="480" viewBox="0 0 320 480">
  <metadata><?xpacket begin="﻿" id="W5M0MpCehiHzreSzNTczkc9d"?>
<x:xmpmeta xmlns:x="adobe:ns:meta/" x:xmptk="Adobe XMP Core 5.6-c138 79.159824, 2016/09/14-01:09:01        ">
   <rdf:RDF xmlns:rdf="http://www.w3.org/1999/02/22-rdf-syntax-ns#">
      <rdf:Description rdf:about=""/>
   </rdf:RDF>
</x:xmpmeta>
                                                                                                    
                                                                                                    
                                                                                                    
                                                                                                    
                                                                                                    
                                                                                                    
                                                                                                    
                                                                                                    
                                                                                                    
                                                                                                    
                                                                                                    
                                                                                                    
                                                                                                    
                                                                                                    
                                                                                                    
                                                                                                    
                                                                                                    
                                                                                                    
                                                                                                    
                                                                                                    
                           
<?xpacket end="w"?></metadata>
<defs>
    <style>
      .cls-1 {
        fill: none;
        stroke: #000;
        stroke-linecap: round;
        stroke-linejoin: round;
        stroke-width: 6.99px;
        fill-rule: evenodd;
      }
    </style>
  </defs>
  <path id="t-1-5-2" data-name="t-1-5" class="cls-1" d="M210,292.826a116.642,116.642,0,0,0-18.738-9.479A91.3,91.3,0,0,0,173,278.81a72.122,72.122,0,0,0-15.848-2,99.632,99.632,0,0,0-18.152,2,174.678,174.678,0,0,0-17.579,10.854A210.022,210.022,0,0,0,104,303.838s-4.852,12.05-8.362,23.944A194.974,194.974,0,0,0,91,347.887s-1.7,12.073-2.423,25.594c-0.57,10.659-1.594,19.148-1.577,24.462,0.006,1.9,2,6.007,2,6.007l26.986,17.858C131.524,432.091,148,445,148,445l11,4h8a286.658,286.658,0,0,0,30.9-21.8c10.867-8.948,21.176-19.086,26.768-24.772,2.728-2.774,4.334-10.5,4.334-10.5s-0.042-12.127-1-32.035a443.836,443.836,0,0,0-5-45.051,47.444,47.444,0,0,0-5.231-12.376A61.527,61.527,0,0,0,210,292.826Z"/>
  <path id="t-1-5-t1" class="cls-1" d="M112,71.579L109,88.6l1,23.025s2.506,34.836,2.01,69.9c-0.5,35.515-4.01,71.262-4.01,71.262l-5,52.058s7.469-6.753,14.4-12.09a128.839,128.839,0,0,1,11.6-7.932,32.1,32.1,0,0,1,6.329-3.264A37.75,37.75,0,0,1,143,279.811a74.5,74.5,0,0,1,15.9-2,76.738,76.738,0,0,1,16.1,2,201.333,201.333,0,0,1,19.742,6.3A135.656,135.656,0,0,1,211,293.827s-3.842-20.675-8.358-39.024C198.7,238.77,194,224.75,194,224.75s-4.818-22.485-16.443-52.666c-9.81-25.467-21.6-56.293-30.584-76.8A211.821,211.821,0,0,0,135,71.579l-9-7.008s-4.755-2.125-8.375-.313C114.254,65.945,112,71.579,112,71.579Z"/>
  <path id="t-1-5-t2" class="cls-1" d="M196,221.746s6.29-52.462,6-95.106a224.871,224.871,0,0,0-7-52.058l-6-14.016s-2.939-3.3-5.63-3.567c-2.273-.228-4.37,2.566-4.37,2.566a37.092,37.092,0,0,0-6.332,7.45C170.673,70.179,168,81.59,168,81.59s-2.424,7.946-4.885,18.048C160.577,110.054,159,119.632,159,119.632L195,224.75s-0.632,3.635,0,3C195.839,226.913,196,221.746,196,221.746Z"/>
</svg>
