<svg id="t-2-5" xmlns="http://www.w3.org/2000/svg" width="320" height="480" viewBox="0 0 320 480">
  <metadata><?xpacket begin="﻿" id="W5M0MpCehiHzreSzNTczkc9d"?>
<x:xmpmeta xmlns:x="adobe:ns:meta/" x:xmptk="Adobe XMP Core 5.6-c138 79.159824, 2016/09/14-01:09:01        ">
   <rdf:RDF xmlns:rdf="http://www.w3.org/1999/02/22-rdf-syntax-ns#">
      <rdf:Description rdf:about=""/>
   </rdf:RDF>
</x:xmpmeta>
                                                                                                    
                                                                                                    
                                                                                                    
                                                                                                    
                                                                                                    
                                                                                                    
                                                                                                    
                                                                                                    
                                                                                                    
                                                                                                    
                                                                                                    
                                                                                                    
                                                                                                    
                                                                                                    
                                                                                                    
                                                                                                    
                                                                                                    
                                                                                                    
                                                                                                    
                                                                                                    
                           
<?xpacket end="w"?></metadata>
<defs>
    <style>
      .cls-1 {
        stroke:#000;
        fill:none;
        stroke-linecap: round;
        stroke-linejoin: round;
        stroke-width: 10px;
        fill-rule: evenodd;
      }
    </style>
  </defs>
  <path id="t-3-5-b" class="cls-1" d="M226,284.574c0.583-.607,3.347.843,6,8A166.787,166.787,0,0,1,238.076,315c1.413,11.06.921,10.015,1.924,25.57,1.763,27.326,4.545,47.1,0,51.43-10.985,10.457-14.907,15.238-19,18-6.392,4.314-48,21.563-48,21.563s-8.83,4.078-13.111,2.038c-9.39-4.474-45.838-27.51-45.889-27.6,0,0-5.814-3.718-14.713-17.431-4.44-6.842-2.287-18-2.287-18a130.276,130.276,0,0,1,1.573-15.6c1.031-6.536,2.2-14.352,3.184-21.866,2.161-16.567,3.243-31.527,3.243-31.527a48.655,48.655,0,0,1,4.293-9.661A47.43,47.43,0,0,1,116,283.574a135.768,135.768,0,0,1,14.668-10.183A105.782,105.782,0,0,1,145,266.576a31.291,31.291,0,0,1,8.114-2.823A79.725,79.725,0,0,1,165,262.576a57.654,57.654,0,0,1,10.231-.555A100.945,100.945,0,0,1,188,263.576a81.805,81.805,0,0,1,19.123,6.561C216.581,274.866,226,284.574,226,284.574Z"/>
  <path id="t-3-5-t" class="cls-1" d="M172,37.594a23.758,23.758,0,0,1,4.468,3.467A30.724,30.724,0,0,1,180,45.593a72.318,72.318,0,0,1,5.528,8.551A50.983,50.983,0,0,1,189,62.592s11.045,52.336,19.311,96.228C214.09,189.508,218,216.579,218,216.579l8,67s-8.326-7.534-15.521-11.555A80.876,80.876,0,0,0,192,264.576a34.354,34.354,0,0,0-7.523-1.885,54.418,54.418,0,0,0-9.477-.115,77.941,77.941,0,0,0-11.3.13,44.378,44.378,0,0,0-8.7,1.87,36.216,36.216,0,0,0-15.323,3.461C130.553,272.208,115,284.574,115,284.574s14.224-49.492,20.051-83.657C140.179,170.85,142,151.585,142,151.585s2.948-20.055,3.92-37.564c0.475-8.543-.473-15.552-0.553-21.692A100.032,100.032,0,0,1,146,79.59a158.294,158.294,0,0,1,2.714-16.472A32.945,32.945,0,0,1,152,54.592a40.533,40.533,0,0,1,4.641-8.81A66.677,66.677,0,0,1,165,36.594a5.844,5.844,0,0,1,3.128-.553A11.677,11.677,0,0,1,172,37.594Z"/>
</svg>
