<svg id="t-2-6" xmlns="http://www.w3.org/2000/svg" width="320" height="480" viewBox="0 0 320 480">
  <metadata><?xpacket begin="﻿" id="W5M0MpCehiHzreSzNTczkc9d"?>
<x:xmpmeta xmlns:x="adobe:ns:meta/" x:xmptk="Adobe XMP Core 5.6-c138 79.159824, 2016/09/14-01:09:01        ">
   <rdf:RDF xmlns:rdf="http://www.w3.org/1999/02/22-rdf-syntax-ns#">
      <rdf:Description rdf:about=""/>
   </rdf:RDF>
</x:xmpmeta>
                                                                                                    
                                                                                                    
                                                                                                    
                                                                                                    
                                                                                                    
                                                                                                    
                                                                                                    
                                                                                                    
                                                                                                    
                                                                                                    
                                                                                                    
                                                                                                    
                                                                                                    
                                                                                                    
                                                                                                    
                                                                                                    
                                                                                                    
                                                                                                    
                                                                                                    
                                                                                                    
                           
<?xpacket end="w"?></metadata>
<defs>
    <style>
      .cls-1 {
        stroke:#000;
        fill:none;
        stroke-linecap: round;
        stroke-linejoin: round;
        stroke-width: 10px;
        fill-rule: evenodd;
      }
    </style>
  </defs>
  <path id="t-2-6-t" class="cls-1" d="M122.684,72.671a18.933,18.933,0,0,0-7.015,6.5c-2.506,4.255-3.008,10.513-3.008,10.513s-2.095,9.687-3.259,21.084c-1.33,13.02-2.755,27.967-2.755,27.967a134.794,134.794,0,0,0-2.785,24.089c-0.078,2.611-.119,9.329-0.133,12.066-0.083,17.007-.089,28.913-0.089,28.913a186.056,186.056,0,0,0-.689,19.4c0.294,18.21,2.693,44.671,2.693,44.671a56.327,56.327,0,0,1,16.716-9.546c4.933-1.833,12.351-1.712,17.594-3.273a122,122,0,0,1,22.824-4.2,114.328,114.328,0,0,1,18.386-2,54.175,54.175,0,0,1,14.691,2A155.634,155.634,0,0,1,220,261.71a112.834,112.834,0,0,1,18.958,14.174,179.038,179.038,0,0,0,3.706-19.83c1.976-15.226,2.308-35.228,2.308-35.228a158.7,158.7,0,0,0,.891-19.454c-0.1-8.139-1.289-17.837-1.636-27.063-0.662-17.645-2.262-33.567-2.262-33.567s-3.47-20.821-7.691-39.528a222.4,222.4,0,0,0-9.349-30.545l-5.012-8.008s-2.262-2.68-4.637-3.391a8.961,8.961,0,0,0-5.386.388,4.237,4.237,0,0,0-3.672.617c-1.7,1.211-3.345,4.388-3.345,4.388l-3.007,13.014-4.009,44.046s-0.969,24.457-6.014,45.047c-3.568,14.562-7.379,33.84-11.026,43.046-2.829,7.14-6.014,6.006-6.014,6.006s-9.327-6.114-16.037-20.021c-4.842-10.035-9.567-24.988-12.028-37.039-1.35-6.609-2.589-14.311-3.634-21.478a220.016,220.016,0,0,1-2.38-34.581,118.453,118.453,0,0,0-2.41-16.633,40.008,40.008,0,0,0-4.607-11.4s-2.355-2.525-4.658-3.036A6.25,6.25,0,0,0,122.684,72.671Z"/>
  <path id="t-2-6-b" class="cls-1" d="M105.644,267.876S95.562,283.73,91,308.231A489.513,489.513,0,0,0,84.1,367.045a67.282,67.282,0,0,0,.5,13.949,45.3,45.3,0,0,0,5.477,13.431,62.864,62.864,0,0,0,11.563,12.6,37.457,37.457,0,0,0,8.216,5.144,74.178,74.178,0,0,0,11.831,3.865s8.065-1.776,15.7-4.405a127.32,127.32,0,0,0,13.37-5.6s6.448,2.883,12.361,4.927c7.021,2.428,13.7,4.082,13.7,4.082a83.647,83.647,0,0,0,12.891-2.8,77.3,77.3,0,0,0,12.168-5.21,28.74,28.74,0,0,0,7.554,3.992,85.492,85.492,0,0,0,12.493,3.015,58.672,58.672,0,0,0,10-.684,17.193,17.193,0,0,0,6.038-2.319,69.867,69.867,0,0,0,9.529-9.017,73.649,73.649,0,0,0,7.511-11,122.961,122.961,0,0,0,2.779-34.675c-1.711-27.344-8.793-61.426-8.793-61.426a59.773,59.773,0,0,0-4.379-10.772,53.507,53.507,0,0,0-6.647-9.249,108.589,108.589,0,0,0-18.824-13.821,172.233,172.233,0,0,0-25.279-11.205,57.173,57.173,0,0,0-9.832-1.492,60.577,60.577,0,0,0-10.215.491,103.177,103.177,0,0,1-12.518,3.175,61.711,61.711,0,0,1-10.535.829l-13.031,5-13.03-1a70.589,70.589,0,0,0-11.359,4.987A37.388,37.388,0,0,0,105.644,267.876Z"/>
</svg>
