<svg id="t-2-8" xmlns="http://www.w3.org/2000/svg" width="320" height="480" viewBox="0 0 320 480">
  <metadata><?xpacket begin="﻿" id="W5M0MpCehiHzreSzNTczkc9d"?>
<x:xmpmeta xmlns:x="adobe:ns:meta/" x:xmptk="Adobe XMP Core 5.6-c138 79.159824, 2016/09/14-01:09:01        ">
   <rdf:RDF xmlns:rdf="http://www.w3.org/1999/02/22-rdf-syntax-ns#">
      <rdf:Description rdf:about=""/>
   </rdf:RDF>
</x:xmpmeta>
                                                                                                    
                                                                                                    
                                                                                                    
                                                                                                    
                                                                                                    
                                                                                                    
                                                                                                    
                                                                                                    
                                                                                                    
                                                                                                    
                                                                                                    
                                                                                                    
                                                                                                    
                                                                                                    
                                                                                                    
                                                                                                    
                                                                                                    
                                                                                                    
                                                                                                    
                                                                                                    
                           
<?xpacket end="w"?></metadata>
<defs>
    <style>
      .cls-1 {
        stroke:#000;
        fill:none;
        stroke-linecap: round;
        stroke-linejoin: round;
        stroke-width: 10px;
        fill-rule: evenodd;
      }
    </style>
  </defs>
  <path id="t-3-8-b_" data-name="t-3-8-b " class="cls-1" d="M109.644,250.614S99.562,266.492,95,291.031A491.026,491.026,0,0,0,88.1,349.938a67.5,67.5,0,0,0,.5,13.971,45.407,45.407,0,0,0,5.477,13.451,62.9,62.9,0,0,0,11.563,12.616,37.419,37.419,0,0,0,8.216,5.153A74.057,74.057,0,0,0,125.682,399a162.939,162.939,0,0,0,15.7-4.412,127.261,127.261,0,0,0,13.37-5.614s6.448,2.888,12.361,4.935c7.021,2.432,13.7,4.088,13.7,4.088a83.51,83.51,0,0,0,12.891-2.8,77.274,77.274,0,0,0,12.168-5.219,28.7,28.7,0,0,0,7.554,4A85.4,85.4,0,0,0,225.916,397a58.608,58.608,0,0,0,10-.685,17.172,17.172,0,0,0,6.038-2.323,69.892,69.892,0,0,0,9.529-9.031,73.73,73.73,0,0,0,7.511-11.021,123.343,123.343,0,0,0,2.779-34.729c-1.711-27.386-8.793-61.522-8.793-61.522A59.931,59.931,0,0,0,248.6,266.9a53.616,53.616,0,0,0-6.647-9.263,108.571,108.571,0,0,0-18.824-13.843,172.075,172.075,0,0,0-25.279-11.222,57.125,57.125,0,0,0-9.832-1.5,60.518,60.518,0,0,0-10.215.492,102.907,102.907,0,0,1-12.518,3.18,61.654,61.654,0,0,1-10.535.83l-13.031,5.013-13.03-1a70.544,70.544,0,0,0-11.359,4.994A37.427,37.427,0,0,0,109.644,250.614Z"/>
  <path id="t-3-8-t" class="cls-1" d="M126.775,55.678a18.948,18.948,0,0,0-7.019,6.508c-2.507,4.258-3.01,10.519-3.01,10.519s-2.095,9.692-3.26,21.1c-1.331,13.026-2.757,27.982-2.757,27.982a134.973,134.973,0,0,0-2.786,24.1c-0.078,2.613-.119,9.335-0.133,12.073-0.083,17.016-.089,28.929-0.089,28.929a186.388,186.388,0,0,0-.69,19.407c0.295,18.219,2.695,44.694,2.695,44.694a56.367,56.367,0,0,1,16.725-9.551c4.936-1.834,12.357-1.712,17.6-3.274a122.069,122.069,0,0,1,22.835-4.2,114.4,114.4,0,0,1,18.4-2,54.2,54.2,0,0,1,14.7,2,155.691,155.691,0,0,1,24.155,10.859A112.886,112.886,0,0,1,243.105,259a178.942,178.942,0,0,0,3.708-19.84c1.978-15.235,2.309-35.247,2.309-35.247a158.5,158.5,0,0,0,.892-19.465c-0.1-8.143-1.29-17.846-1.636-27.078-0.663-17.654-2.264-33.584-2.264-33.584s-3.472-20.832-7.695-39.55a222.445,222.445,0,0,0-9.353-30.562l-5.015-8.013s-2.263-2.681-4.639-3.393a8.965,8.965,0,0,0-5.389.388,4.239,4.239,0,0,0-3.674.618c-1.7,1.212-3.346,4.39-3.346,4.39l-3.009,13.021-4.011,44.07s-0.97,24.469-6.017,45.071c-3.569,14.569-7.383,33.857-11.032,43.068-2.83,7.144-6.017,6.01-6.017,6.01s-9.331-6.117-16.045-20.032c-4.845-10.04-9.572-25-12.034-37.059-1.351-6.612-2.59-14.318-3.636-21.49a220.17,220.17,0,0,1-2.381-34.6,118.482,118.482,0,0,0-2.411-16.642,40.038,40.038,0,0,0-4.609-11.4s-2.357-2.526-4.661-3.038A6.254,6.254,0,0,0,126.775,55.678Z"/>
</svg>
