<svg id="t-3-2" xmlns="http://www.w3.org/2000/svg" width="320" height="480" viewBox="0 0 320 480">
  <metadata><?xpacket begin="﻿" id="W5M0MpCehiHzreSzNTczkc9d"?>
<x:xmpmeta xmlns:x="adobe:ns:meta/" x:xmptk="Adobe XMP Core 5.6-c138 79.159824, 2016/09/14-01:09:01        ">
   <rdf:RDF xmlns:rdf="http://www.w3.org/1999/02/22-rdf-syntax-ns#">
      <rdf:Description rdf:about=""/>
   </rdf:RDF>
</x:xmpmeta>
                                                                                                    
                                                                                                    
                                                                                                    
                                                                                                    
                                                                                                    
                                                                                                    
                                                                                                    
                                                                                                    
                                                                                                    
                                                                                                    
                                                                                                    
                                                                                                    
                                                                                                    
                                                                                                    
                                                                                                    
                                                                                                    
                                                                                                    
                                                                                                    
                                                                                                    
                                                                                                    
                           
<?xpacket end="w"?></metadata>
<defs>
    <style>
      .cls-1 {
        stroke:#000;
        fill:none;
        stroke-linecap: round;
        stroke-linejoin: round;
        stroke-width: 10px;
        fill-rule: evenodd;
      }
    </style>
  </defs>
  <path id="t-3-2-b" class="cls-1" d="M193.706,343.144c-10.143,48.755-19.167,96.987-18.327,96.661l-7.994,12s-12.57,14.523-16.987,6c2.114,4.077-11.678-8-13.989-33.011-1.038-11.235-4.316-26.793-6-45.014-1.983-21.525-4.508-48.11-8.073-72.144-2.626-17.7-5.084-35.323-6.916-51.9-3.122-28.259-5.66-52.084-5.995-58.019-0.1-1.844,1.318.319,5.717,4.723,6.746,6.754,16.266,10.282,16.266,10.282a118.677,118.677,0,0,0,15.523,5.379,177.023,177.023,0,0,0,18.45,3.624s12.941-3.578,24.781-8.117c11.64-4.463,22.183-14.891,22.183-14.891C211.923,199,198.2,321.541,193.706,343.144Z"/>
  <path id="t-3-2-t" class="cls-1" d="M215.347,88.692c6.486,5.088,1,79.025,1,79.025s-3.714,24.317-4,28.009c-0.2,2.624-3,8-3,8a112.08,112.08,0,0,1-20.783,10.3,111.47,111.47,0,0,1-24.182,5.7,79.706,79.706,0,0,1-22.828-3.072,129.99,129.99,0,0,1-19.139-7.931s-13.372-8.771-13.989-14c-6.3-53.436-11.784-90.861,0-109.035,0.9-1.384-.106-0.869,1-2,6.155-6.3,33.355-5.635,40.968-6,22.317-1.076,30.841-1.485,51.96-1,0,0,3.942,1.929,6,3C212.611,81.912,215.347,88.692,215.347,88.692Z"/>
</svg>
