<svg id="t-3-4" xmlns="http://www.w3.org/2000/svg" width="320" height="480" viewBox="0 0 320 480">
  <metadata><?xpacket begin="﻿" id="W5M0MpCehiHzreSzNTczkc9d"?>
<x:xmpmeta xmlns:x="adobe:ns:meta/" x:xmptk="Adobe XMP Core 5.6-c138 79.159824, 2016/09/14-01:09:01        ">
   <rdf:RDF xmlns:rdf="http://www.w3.org/1999/02/22-rdf-syntax-ns#">
      <rdf:Description rdf:about=""/>
   </rdf:RDF>
</x:xmpmeta>
                                                                                                    
                                                                                                    
                                                                                                    
                                                                                                    
                                                                                                    
                                                                                                    
                                                                                                    
                                                                                                    
                                                                                                    
                                                                                                    
                                                                                                    
                                                                                                    
                                                                                                    
                                                                                                    
                                                                                                    
                                                                                                    
                                                                                                    
                                                                                                    
                                                                                                    
                                                                                                    
                           
<?xpacket end="w"?></metadata>
<defs>
    <style>
      .cls-1 {
        stroke:#000;
        fill:none;
        stroke-linecap: round;
        stroke-linejoin: round;
        stroke-width: 10px;
        fill-rule: evenodd;
      }
    </style>
  </defs>
  <path id="t-3-4-b" class="cls-1" d="M210,209.426c0.583,0.607,3.347-.843,6-8A166.787,166.787,0,0,0,222.076,179c1.413-11.06.921-10.015,1.924-25.57,1.763-27.326,4.545-47.1,0-51.43-10.985-10.457-14.907-15.238-19-18-6.392-4.314-48-21.562-48-21.562s-8.83-4.078-13.111-2.039C134.5,64.873,98.051,87.909,98,88c0,0-5.814,3.718-14.713,17.431-4.44,6.842-2.287,18-2.287,18a130.276,130.276,0,0,0,1.573,15.6c1.031,6.536,2.2,14.352,3.184,21.866C87.918,177.467,89,192.427,89,192.427a48.638,48.638,0,0,0,4.293,9.661A47.442,47.442,0,0,0,100,210.426a135.768,135.768,0,0,0,14.668,10.183A105.782,105.782,0,0,0,129,227.424a31.291,31.291,0,0,0,8.114,2.823A79.725,79.725,0,0,0,149,231.424a57.654,57.654,0,0,0,10.231.555A100.945,100.945,0,0,0,172,230.424a81.805,81.805,0,0,0,19.123-6.561C200.581,219.134,210,209.426,210,209.426Z"/>
  <path id="t-3-4-t" class="cls-1" d="M156,456.406a23.735,23.735,0,0,0,4.468-3.467A30.7,30.7,0,0,0,164,448.407a72.346,72.346,0,0,0,5.528-8.552A50.976,50.976,0,0,0,173,431.408s11.045-52.336,19.311-96.228C198.09,304.492,202,277.421,202,277.421l8-66.995s-8.326,7.534-15.521,11.555A80.876,80.876,0,0,1,176,229.424a34.354,34.354,0,0,1-7.523,1.885,54.418,54.418,0,0,1-9.477.115,77.941,77.941,0,0,1-11.3-.13,44.378,44.378,0,0,1-8.7-1.87,36.216,36.216,0,0,1-15.323-3.461C114.553,221.792,99,209.426,99,209.426s14.224,49.492,20.051,83.657C124.179,323.15,126,342.415,126,342.415s2.948,20.055,3.92,37.564c0.475,8.543-.473,15.552-0.553,21.692A100.043,100.043,0,0,0,130,414.41a158.312,158.312,0,0,0,2.714,16.472A32.941,32.941,0,0,0,136,439.408a40.552,40.552,0,0,0,4.641,8.81A66.645,66.645,0,0,0,149,457.406a5.845,5.845,0,0,0,3.128.553A11.668,11.668,0,0,0,156,456.406Z"/>
</svg>
