<svg id="t-3-6" xmlns="http://www.w3.org/2000/svg" width="320" height="480" viewBox="0 0 320 480">
  <metadata><?xpacket begin="﻿" id="W5M0MpCehiHzreSzNTczkc9d"?>
<x:xmpmeta xmlns:x="adobe:ns:meta/" x:xmptk="Adobe XMP Core 5.6-c138 79.159824, 2016/09/14-01:09:01        ">
   <rdf:RDF xmlns:rdf="http://www.w3.org/1999/02/22-rdf-syntax-ns#">
      <rdf:Description rdf:about=""/>
   </rdf:RDF>
</x:xmpmeta>
                                                                                                    
                                                                                                    
                                                                                                    
                                                                                                    
                                                                                                    
                                                                                                    
                                                                                                    
                                                                                                    
                                                                                                    
                                                                                                    
                                                                                                    
                                                                                                    
                                                                                                    
                                                                                                    
                                                                                                    
                                                                                                    
                                                                                                    
                                                                                                    
                                                                                                    
                                                                                                    
                           
<?xpacket end="w"?></metadata>
<defs>
    <style>
      .cls-1 {
        stroke:#000;
        fill:none;
        stroke-linecap: round;
        stroke-linejoin: round;
        stroke-width: 10px;
        fill-rule: evenodd;
      }
    </style>
  </defs>
  <path id="t-3-6-t" class="cls-1" d="M112.684,421.329a18.935,18.935,0,0,1-7.015-6.5c-2.506-4.256-3.008-10.514-3.008-10.514s-2.095-9.686-3.259-21.084c-1.33-13.02-2.755-27.967-2.755-27.967a134.825,134.825,0,0,1-2.785-24.089c-0.078-2.611-.12-9.329-0.133-12.066-0.084-17.007-.09-28.913-0.09-28.913a186.237,186.237,0,0,1-.689-19.4c0.294-18.21,2.694-44.671,2.694-44.671a56.323,56.323,0,0,0,16.716,9.546c4.933,1.833,12.351,1.712,17.594,3.273a122,122,0,0,0,22.824,4.2,114.328,114.328,0,0,0,18.386,2,54.175,54.175,0,0,0,14.691-2A155.634,155.634,0,0,0,210,232.29a112.834,112.834,0,0,0,18.958-14.174,179.038,179.038,0,0,1,3.706,19.83c1.976,15.226,2.308,35.228,2.308,35.228a158.7,158.7,0,0,1,.891,19.454c-0.1,8.139-1.289,17.837-1.636,27.063-0.662,17.645-2.262,33.567-2.262,33.567s-3.47,20.821-7.691,39.528a222.4,222.4,0,0,1-9.349,30.545l-5.012,8.009s-2.262,2.68-4.637,3.391a8.964,8.964,0,0,1-5.386-.388,4.236,4.236,0,0,1-3.672-.617c-1.7-1.212-3.345-4.388-3.345-4.388l-3.007-13.014-4.009-44.046s-0.969-24.457-6.014-45.047c-3.568-14.562-7.379-33.84-11.026-43.046-2.829-7.14-6.014-6.006-6.014-6.006s-9.327,6.114-16.037,20.021c-4.842,10.035-9.567,24.988-12.028,37.039-1.35,6.609-2.589,14.311-3.634,21.478a220.016,220.016,0,0,0-2.38,34.581,118.46,118.46,0,0,1-2.41,16.633,40.005,40.005,0,0,1-4.607,11.4s-2.355,2.525-4.658,3.036A6.247,6.247,0,0,1,112.684,421.329Z"/>
  <path id="t-3-6-b" class="cls-1" d="M95.644,226.124S85.562,210.27,81,185.769A489.513,489.513,0,0,1,74.1,126.955a67.282,67.282,0,0,1,.5-13.949,45.291,45.291,0,0,1,5.477-13.43,62.84,62.84,0,0,1,11.563-12.6,37.426,37.426,0,0,1,8.216-5.144,74.16,74.16,0,0,1,11.831-3.865s8.065,1.776,15.7,4.405a127.321,127.321,0,0,1,13.37,5.605s6.448-2.884,12.361-4.928c7.021-2.428,13.7-4.082,13.7-4.082a83.6,83.6,0,0,1,12.891,2.8,77.291,77.291,0,0,1,12.168,5.21,28.715,28.715,0,0,1,7.554-3.992,85.388,85.388,0,0,1,12.493-3.016,58.708,58.708,0,0,1,10,.684,17.188,17.188,0,0,1,6.038,2.319,69.881,69.881,0,0,1,9.529,9.017,73.636,73.636,0,0,1,7.511,11,122.961,122.961,0,0,1,2.779,34.675c-1.711,27.344-8.793,61.426-8.793,61.426a59.773,59.773,0,0,1-4.379,10.772,53.507,53.507,0,0,1-6.647,9.249,108.589,108.589,0,0,1-18.824,13.821,172.233,172.233,0,0,1-25.279,11.205,57.173,57.173,0,0,1-9.832,1.492,60.577,60.577,0,0,1-10.215-.491,103.177,103.177,0,0,0-12.518-3.175,61.711,61.711,0,0,0-10.535-.829l-13.031-5-13.03,1a70.589,70.589,0,0,1-11.359-4.987A37.377,37.377,0,0,1,95.644,226.124Z"/>
</svg>
