<svg id="t-3-8" xmlns="http://www.w3.org/2000/svg" width="320" height="480" viewBox="0 0 320 480">
  <metadata><?xpacket begin="﻿" id="W5M0MpCehiHzreSzNTczkc9d"?>
<x:xmpmeta xmlns:x="adobe:ns:meta/" x:xmptk="Adobe XMP Core 5.6-c138 79.159824, 2016/09/14-01:09:01        ">
   <rdf:RDF xmlns:rdf="http://www.w3.org/1999/02/22-rdf-syntax-ns#">
      <rdf:Description rdf:about=""/>
   </rdf:RDF>
</x:xmpmeta>
                                                                                                    
                                                                                                    
                                                                                                    
                                                                                                    
                                                                                                    
                                                                                                    
                                                                                                    
                                                                                                    
                                                                                                    
                                                                                                    
                                                                                                    
                                                                                                    
                                                                                                    
                                                                                                    
                                                                                                    
                                                                                                    
                                                                                                    
                                                                                                    
                                                                                                    
                                                                                                    
                           
<?xpacket end="w"?></metadata>
<defs>
    <style>
      .cls-1 {
        stroke:#000;
        fill:none;
        stroke-linecap: round;
        stroke-linejoin: round;
        stroke-width: 10px;
        fill-rule: evenodd;
      }
    </style>
  </defs>
  <path id="t-3-8-b_" data-name="t-3-8-b " class="cls-1" d="M99.644,243.386S89.562,227.508,85,202.969A491.026,491.026,0,0,1,78.1,144.062a67.5,67.5,0,0,1,.5-13.971,45.407,45.407,0,0,1,5.477-13.451,62.905,62.905,0,0,1,11.563-12.616,37.405,37.405,0,0,1,8.216-5.153A74.085,74.085,0,0,1,115.682,95a162.94,162.94,0,0,1,15.7,4.412,127.236,127.236,0,0,1,13.37,5.614s6.448-2.888,12.361-4.935c7.021-2.432,13.7-4.088,13.7-4.088a83.49,83.49,0,0,1,12.891,2.8,77.257,77.257,0,0,1,12.168,5.219,28.7,28.7,0,0,1,7.554-4,85.324,85.324,0,0,1,12.493-3.02,58.621,58.621,0,0,1,10,.685,17.175,17.175,0,0,1,6.038,2.323,69.892,69.892,0,0,1,9.529,9.031,73.73,73.73,0,0,1,7.511,11.021,123.343,123.343,0,0,1,2.779,34.729c-1.711,27.386-8.793,61.522-8.793,61.522a59.931,59.931,0,0,1-4.379,10.789,53.616,53.616,0,0,1-6.647,9.263,108.571,108.571,0,0,1-18.824,13.843,172.075,172.075,0,0,1-25.279,11.222,57.125,57.125,0,0,1-9.832,1.5,60.518,60.518,0,0,1-10.215-.492,102.907,102.907,0,0,0-12.518-3.18,61.654,61.654,0,0,0-10.535-.83l-13.031-5.013-13.03,1a70.544,70.544,0,0,1-11.359-4.994A37.42,37.42,0,0,1,99.644,243.386Z"/>
  <path id="t-3-8-t" class="cls-1" d="M116.775,438.322a18.947,18.947,0,0,1-7.019-6.508c-2.507-4.258-3.01-10.519-3.01-10.519s-2.095-9.692-3.26-21.1c-1.331-13.026-2.757-27.982-2.757-27.982a134.908,134.908,0,0,1-2.786-24.1c-0.078-2.613-.12-9.335-0.133-12.073-0.084-17.016-.09-28.929-0.09-28.929a186.332,186.332,0,0,1-.689-19.407c0.294-18.219,2.7-44.694,2.7-44.694a56.36,56.36,0,0,0,16.724,9.551c4.936,1.834,12.357,1.712,17.6,3.274a122.069,122.069,0,0,0,22.835,4.2,114.4,114.4,0,0,0,18.4,2,54.2,54.2,0,0,0,14.7-2,155.691,155.691,0,0,0,24.155-10.859A112.886,112.886,0,0,0,233.105,235a178.942,178.942,0,0,1,3.708,19.84c1.978,15.235,2.309,35.247,2.309,35.247a158.5,158.5,0,0,1,.892,19.465c-0.1,8.143-1.29,17.846-1.636,27.078-0.663,17.654-2.264,33.584-2.264,33.584s-3.472,20.832-7.695,39.55a222.415,222.415,0,0,1-9.353,30.561l-5.015,8.013s-2.263,2.681-4.639,3.393a8.964,8.964,0,0,1-5.389-.388,4.239,4.239,0,0,1-3.674-.618c-1.7-1.212-3.346-4.39-3.346-4.39l-3.009-13.021-4.011-44.07s-0.97-24.469-6.017-45.071c-3.569-14.569-7.383-33.857-11.032-43.068-2.83-7.144-6.017-6.01-6.017-6.01s-9.331,6.117-16.045,20.032c-4.845,10.04-9.572,25-12.034,37.059-1.351,6.612-2.59,14.318-3.636,21.49a220.174,220.174,0,0,0-2.381,34.6,118.472,118.472,0,0,1-2.411,16.641,40.048,40.048,0,0,1-4.609,11.4s-2.357,2.526-4.661,3.038A6.256,6.256,0,0,1,116.775,438.322Z"/>
</svg>
