<svg id="t-4-1" xmlns="http://www.w3.org/2000/svg" width="320" height="480" viewBox="0 0 320 480">
  <metadata><?xpacket begin="﻿" id="W5M0MpCehiHzreSzNTczkc9d"?>
<x:xmpmeta xmlns:x="adobe:ns:meta/" x:xmptk="Adobe XMP Core 5.6-c138 79.159824, 2016/09/14-01:09:01        ">
   <rdf:RDF xmlns:rdf="http://www.w3.org/1999/02/22-rdf-syntax-ns#">
      <rdf:Description rdf:about=""/>
   </rdf:RDF>
</x:xmpmeta>
                                                                                                    
                                                                                                    
                                                                                                    
                                                                                                    
                                                                                                    
                                                                                                    
                                                                                                    
                                                                                                    
                                                                                                    
                                                                                                    
                                                                                                    
                                                                                                    
                                                                                                    
                                                                                                    
                                                                                                    
                                                                                                    
                                                                                                    
                                                                                                    
                                                                                                    
                                                                                                    
                           
<?xpacket end="w"?></metadata>
<defs>
    <style>
      .cls-1 {
        stroke:#000;
        fill:none;
        stroke-linecap: round;
        stroke-linejoin: round;
        stroke-width: 10px;
        fill-rule: evenodd;
      }
    </style>
  </defs>
  <path id="t-4-1-t" class="cls-1" d="M95,82a46.518,46.518,0,0,0-4.572,19.071C89.557,130.09,92,182,92,182s0.731,7.462,3.472,12.944A28.429,28.429,0,0,0,103,204s11.539,5.7,23.8,10.3c11.728,4.4,24.2,7.7,24.2,7.7a166.6,166.6,0,0,0,22.846-5.072A130.107,130.107,0,0,0,193,209a62.838,62.838,0,0,0,12.458-12.118A59.533,59.533,0,0,0,213,182l9-85s3.471-6.238-1.621-11.062C216.03,81.818,203,79,203,79a275.8,275.8,0,0,0-43.273-5.006A263.741,263.741,0,0,0,117,77a45.116,45.116,0,0,0-11.894.93A45.159,45.159,0,0,0,95,82Z"/>
  <path id="t-4-1-b" class="cls-1" d="M92,187l3.057,50.436A144.578,144.578,0,0,0,98,257s-0.181,2.534,2.619,13.278c4.3,16.514,10.926,42.973,16.821,70.935C127.21,387.559,135,438,135,438s2.034,7.118,7.285,11.415C148.013,454.1,159,458,159,458a88.153,88.153,0,0,0,11.609-8.548c1.908-1.718,7.328-25.3,7.418-26.55,1.788-24.924,5.858-76.146,11.781-118.631C195.8,261.278,206,230,206,230s4.319-15.927,4.6-29.8c0.214-10.71,1.4-15.2,1.4-15.2s-4.489,10.489-11.721,17.721C193.527,209.473,184,213,184,213a118.856,118.856,0,0,1-15.535,5.377A177.449,177.449,0,0,1,150,222s-12.951-3.577-24.8-8.115C113.551,209.424,103,204,103,204a47.362,47.362,0,0,1-6.884-8.094A41.156,41.156,0,0,1,92,187Z"/>
</svg>
