<svg id="t-4-2" xmlns="http://www.w3.org/2000/svg" width="320" height="480" viewBox="0 0 320 480">
  <metadata><?xpacket begin="﻿" id="W5M0MpCehiHzreSzNTczkc9d"?>
<x:xmpmeta xmlns:x="adobe:ns:meta/" x:xmptk="Adobe XMP Core 5.6-c138 79.159824, 2016/09/14-01:09:01        ">
   <rdf:RDF xmlns:rdf="http://www.w3.org/1999/02/22-rdf-syntax-ns#">
      <rdf:Description rdf:about=""/>
   </rdf:RDF>
</x:xmpmeta>
                                                                                                    
                                                                                                    
                                                                                                    
                                                                                                    
                                                                                                    
                                                                                                    
                                                                                                    
                                                                                                    
                                                                                                    
                                                                                                    
                                                                                                    
                                                                                                    
                                                                                                    
                                                                                                    
                                                                                                    
                                                                                                    
                                                                                                    
                                                                                                    
                                                                                                    
                                                                                                    
                           
<?xpacket end="w"?></metadata>
<defs>
    <style>
      .cls-1 {
        stroke:#000;
        fill:none;
        stroke-linecap: round;
        stroke-linejoin: round;
        stroke-width: 10px;
        fill-rule: evenodd;
      }
    </style>
  </defs>
  <path id="t-4-2-b" class="cls-1" d="M121.658,343.37C131.809,392.109,140.84,440.326,140,440l8,12s12.58,14.518,17,6c-2.115,4.076,11.687-8,14-33,1.039-11.232,4.32-26.785,6-45,1.985-21.518,4.511-48.094,8.079-72.121,2.628-17.7,5.088-35.311,6.921-51.879,3.125-28.249,5.665-52.067,6-58,0.1-1.844-1.319.319-5.721,4.721C193.527,209.473,184,213,184,213a118.856,118.856,0,0,1-15.535,5.377A177.449,177.449,0,0,1,150,222s-12.951-3.577-24.8-8.115C113.551,209.424,103,199,103,199,103.428,199.272,117.16,321.774,121.658,343.37Z"/>
  <path id="t-4-2-t" class="cls-1" d="M100,89c-6.49,5.087-1,79-1,79s3.716,24.309,4,28c0.2,2.623,3,8,3,8a105.422,105.422,0,0,0,45,16,79.867,79.867,0,0,0,22.846-3.072A130.107,130.107,0,0,0,193,209s13.383-8.767,14-14c6.3-53.419,11.793-90.832,0-109-0.9-1.384.106-.869-1-2-6.16-6.3-33.381-5.633-41-6-22.334-1.076-30.865-1.485-52-1,0,0-3.946,1.929-6,3C102.739,82.222,100,89,100,89Z"/>
</svg>
