<svg id="t-4-3" xmlns="http://www.w3.org/2000/svg" width="320" height="480" viewBox="0 0 320 480">
  <metadata><?xpacket begin="﻿" id="W5M0MpCehiHzreSzNTczkc9d"?>
<x:xmpmeta xmlns:x="adobe:ns:meta/" x:xmptk="Adobe XMP Core 5.6-c138 79.159824, 2016/09/14-01:09:01        ">
   <rdf:RDF xmlns:rdf="http://www.w3.org/1999/02/22-rdf-syntax-ns#">
      <rdf:Description rdf:about=""/>
   </rdf:RDF>
</x:xmpmeta>
                                                                                                    
                                                                                                    
                                                                                                    
                                                                                                    
                                                                                                    
                                                                                                    
                                                                                                    
                                                                                                    
                                                                                                    
                                                                                                    
                                                                                                    
                                                                                                    
                                                                                                    
                                                                                                    
                                                                                                    
                                                                                                    
                                                                                                    
                                                                                                    
                                                                                                    
                                                                                                    
                           
<?xpacket end="w"?></metadata>
<defs>
    <style>
      .cls-1 {
        stroke:#000;
        fill:none;
        stroke-linecap: round;
        stroke-linejoin: round;
        stroke-width: 10px;
        fill-rule: evenodd;
      }
    </style>
  </defs>
  <path id="t-4-3-b" class="cls-1" d="M125,345c4.772,49.307,15.84,95.326,15,95l8,12s12.58,14.518,17,6c-2.115,4.076,11.687-8,14-33,1.039-11.232,3.749-26.4,5-45,0.371-5.52,6.753-64.61,11-103,1.661-15.011,5.913-49.51,7-60,0.959-9.251,3.843-16.219,4-19,0.1-1.844-1.319.319-5.721,4.721C193.527,209.473,184,213,184,213a118.856,118.856,0,0,1-15.535,5.377A177.449,177.449,0,0,1,150,222s-12.951-3.577-24.8-8.115C113.551,209.424,103,199,103,199c0.215,0.137,2.779,32,8,66C116.146,298.514,123.944,334.094,125,345Z"/>
  <path id="t-4-3-t" class="cls-1" d="M99,102c-9.575,6.032-7.285,5.858-7,21,0.557,29.587,11.785,83.205,11,73,0.2,2.623,3,8,3,8a105.422,105.422,0,0,0,45,16,79.867,79.867,0,0,0,22.846-3.072A130.107,130.107,0,0,0,193,209s13.341-8.772,14-14c8.586-68.125,12.24-82.325,6.454-86.45C209.408,105.665,203.522,96.933,198,92c-36.124-32.27-28.949-23.893-43-20C129.749,79,99,102,99,102Z"/>
</svg>
