<svg id="t-4-6" xmlns="http://www.w3.org/2000/svg" width="320" height="480" viewBox="0 0 320 480">
  <metadata><?xpacket begin="﻿" id="W5M0MpCehiHzreSzNTczkc9d"?>
<x:xmpmeta xmlns:x="adobe:ns:meta/" x:xmptk="Adobe XMP Core 5.6-c138 79.159824, 2016/09/14-01:09:01        ">
   <rdf:RDF xmlns:rdf="http://www.w3.org/1999/02/22-rdf-syntax-ns#">
      <rdf:Description rdf:about=""/>
   </rdf:RDF>
</x:xmpmeta>
                                                                                                    
                                                                                                    
                                                                                                    
                                                                                                    
                                                                                                    
                                                                                                    
                                                                                                    
                                                                                                    
                                                                                                    
                                                                                                    
                                                                                                    
                                                                                                    
                                                                                                    
                                                                                                    
                                                                                                    
                                                                                                    
                                                                                                    
                                                                                                    
                                                                                                    
                                                                                                    
                           
<?xpacket end="w"?></metadata>
<defs>
    <style>
      .cls-1 {
        stroke:#000;
        fill:none;
        stroke-linecap: round;
        stroke-linejoin: round;
        stroke-width: 10px;
        fill-rule: evenodd;
      }
    </style>
  </defs>
  <path id="t-1-6-t1_копия" data-name="t-1-6-t1 копия" class="cls-1" d="M205.316,408.331a18.932,18.932,0,0,0,7.015-6.5c2.506-4.254,3.008-10.512,3.008-10.512s2.095-9.686,3.259-21.083c1.33-13.018,2.755-27.964,2.755-27.964a134.769,134.769,0,0,0,2.785-24.087c0.078-2.611.119-9.328,0.133-12.065,0.083-17,.089-28.911.089-28.911a186.016,186.016,0,0,0,.689-19.395c-0.294-18.208-2.693-44.666-2.693-44.666a56.338,56.338,0,0,1-16.716,9.545c-4.933,1.833-12.351,1.711-17.594,3.272a122.1,122.1,0,0,1-22.824,4.2,114.328,114.328,0,0,1-18.386,2,54.175,54.175,0,0,1-14.691-2A155.634,155.634,0,0,1,108,219.307a112.827,112.827,0,0,1-18.957-14.172,178.87,178.87,0,0,0-3.706,19.828c-1.976,15.225-2.308,35.225-2.308,35.225a158.482,158.482,0,0,0-.891,19.452c0.1,8.139,1.289,17.836,1.635,27.061,0.663,17.644,2.263,33.564,2.263,33.564s3.47,20.819,7.691,39.525a222.349,222.349,0,0,0,9.349,30.543l5.012,8.007s2.262,2.68,4.637,3.391a8.956,8.956,0,0,0,5.386-.388,4.236,4.236,0,0,0,3.672-.617c1.7-1.211,3.345-4.388,3.345-4.388l3.007-13.012,4.009-44.043s0.969-24.454,6.014-45.043c3.568-14.56,7.379-33.836,11.026-43.041,2.829-7.14,6.014-6.006,6.014-6.006s9.327,6.113,16.037,20.019c4.842,10.034,9.567,24.986,12.028,37.036,1.35,6.608,2.589,14.309,3.634,21.476a219.976,219.976,0,0,1,2.38,34.578,118.429,118.429,0,0,0,2.41,16.631,40.005,40.005,0,0,0,4.607,11.4s2.355,2.524,4.658,3.035A6.249,6.249,0,0,0,205.316,408.331Z"/>
  <path id="t-4-6-b" class="cls-1" d="M222.356,213.143S232.438,197.29,237,172.791a489.533,489.533,0,0,0,6.908-58.81,67.306,67.306,0,0,0-.5-13.947A45.292,45.292,0,0,0,237.928,86.6a62.827,62.827,0,0,0-11.563-12.6,37.439,37.439,0,0,0-8.216-5.144A74.172,74.172,0,0,0,206.318,65s-8.065,1.776-15.7,4.4a127.305,127.305,0,0,0-13.37,5.6s-6.448-2.883-12.361-4.927C157.868,67.655,151.19,66,151.19,66A83.6,83.6,0,0,0,138.3,68.8a77.3,77.3,0,0,0-12.168,5.21,28.713,28.713,0,0,0-7.554-3.992A85.4,85.4,0,0,0,106.084,67a58.716,58.716,0,0,0-10,.684A17.189,17.189,0,0,0,90.047,70a69.9,69.9,0,0,0-9.528,9.016,73.657,73.657,0,0,0-7.511,11A122.926,122.926,0,0,0,70.228,124.7c1.711,27.341,8.793,61.421,8.793,61.421A59.782,59.782,0,0,0,83.4,196.888a53.56,53.56,0,0,0,6.647,9.248,108.581,108.581,0,0,0,18.824,13.82,172.17,172.17,0,0,0,25.279,11.2,57.173,57.173,0,0,0,9.832,1.492,60.7,60.7,0,0,0,10.215-.491,103.177,103.177,0,0,1,12.518-3.175,61.711,61.711,0,0,1,10.535-.829l13.031-5.005,13.03,1a70.639,70.639,0,0,0,11.359-4.986A37.4,37.4,0,0,0,222.356,213.143Z"/>
</svg>
