<svg xmlns="http://www.w3.org/2000/svg" width="300" height="300" viewBox="0 0 300 300">
  <metadata><?xpacket begin="﻿" id="W5M0MpCehiHzreSzNTczkc9d"?>
<x:xmpmeta xmlns:x="adobe:ns:meta/" x:xmptk="Adobe XMP Core 5.6-c138 79.159824, 2016/09/14-01:09:01        ">
   <rdf:RDF xmlns:rdf="http://www.w3.org/1999/02/22-rdf-syntax-ns#">
      <rdf:Description rdf:about=""/>
   </rdf:RDF>
</x:xmpmeta>
                                                                                                    
                                                                                                    
                                                                                                    
                                                                                                    
                                                                                                    
                                                                                                    
                                                                                                    
                                                                                                    
                                                                                                    
                                                                                                    
                                                                                                    
                                                                                                    
                                                                                                    
                                                                                                    
                                                                                                    
                                                                                                    
                                                                                                    
                                                                                                    
                                                                                                    
                                                                                                    
                           
<?xpacket end="w"?></metadata>
<defs>
    <style>
      .cls-1 {
        fill: none;
        stroke: red;
        stroke-width: 8px;
        fill-rule: evenodd;
      }
    </style>
  </defs>
  <path id="_1-5-b" data-name="1-5-b" class="cls-1" d="M154.5,176c-42.986,0-78.964,112,7,112,18.754-18.754,37-26.41,37-58.5q-5.5-20.248-11-40.5c-4.717,0-33.5-13.5-33.5-13.5Z"/>
  <path id="Фигура_1" data-name="Фигура 1" class="cls-1" d="M188.5,178q-0.25,4-.5,8l-5.5,4.5-7.5.5-15.5-5.5c-9.427,0-20.484,5-25.5,5l-5,2.5-1.5-4.5q-0.251-1.5-.5-3c6.587-6.587,6.5-20.907,6.5-32.5q1.75-16.248,3.5-32.5-1.25-30-2.5-60,2.5-22.248,5-44.5c51.808,0,19.478,97.478,43,121,0,14.684,7,28.09,7,44q-0.25-2.25-.5-4.5Q188.75,177.25,188.5,178Z"/>
</svg>
