<svg xmlns="http://www.w3.org/2000/svg" width="56" height="50" class="svg-item" version="1.1">
    <g id="transform-wrapper" transform="scale(.12 .12)">
        <g>
            <g class="tooth tooth-18 status-4  status-1" data-num="18">
                <path id="path2994" fill="none" stroke="#000000" stroke-width="20" d="
                M324.427,2003.436c57.484,5.253,109.322,18.931,144.235,50.377c49.841,25.761,81.641,52.762,79.011,82.133
                c15.953,44.768,3.536,77.288-5.808,111.135l-26.555,55.564c-16.796,32.34-51.506,53.867-105.8,63.573
                c-63.917,10.595-127.84,23.303-191.633-13.06c-72.631-27.094-76.087-65.529-83.063-103.387
                c-21.436-38.836-35.787-85.599-27.286-157.937c7.533-33.066,17.106-75.103,63.979-94.316
                C218.382,1978.306,260.411,1988.273,324.427,2003.436L324.427,2003.436z"/>
                <path id="path3774" fill="none" stroke="#000000" stroke-width="15" d="
                M372.558,2268.703c2.036-1.35-33.876-24.229-59.065-33.957c-12.881-4.975-20.583-20.451-23.855-33.866
                c-6.734-27.608,20.003-62.635,11.489-84.478c-8.515-21.842-26.413-22.824-42.176-29.688c-10.553-4.595-16.817-0.763-33.785-7.131"/>
                <path id="path3776" fill="none" stroke="#000000" stroke-width="15" d="
                M369.743,2091.146c-14.173,0-67.798,3.697-70.018,22.436"/>
                <path id="path3778" fill="none" stroke="#000000" stroke-width="15" d="
                M216.727,2208.158c18.68,0,64.859,10.176,72.921-11.504"/>
            </g>
        </g>
    </g>
</svg>
