<svg id="t-2-1" xmlns="http://www.w3.org/2000/svg" width="320" height="480" viewBox="0 0 320 480">
  <metadata><?xpacket begin="﻿" id="W5M0MpCehiHzreSzNTczkc9d"?>
<x:xmpmeta xmlns:x="adobe:ns:meta/" x:xmptk="Adobe XMP Core 5.6-c138 79.159824, 2016/09/14-01:09:01        ">
   <rdf:RDF xmlns:rdf="http://www.w3.org/1999/02/22-rdf-syntax-ns#">
      <rdf:Description rdf:about=""/>
   </rdf:RDF>
</x:xmpmeta>
                                                                                                    
                                                                                                    
                                                                                                    
                                                                                                    
                                                                                                    
                                                                                                    
                                                                                                    
                                                                                                    
                                                                                                    
                                                                                                    
                                                                                                    
                                                                                                    
                                                                                                    
                                                                                                    
                                                                                                    
                                                                                                    
                                                                                                    
                                                                                                    
                                                                                                    
                                                                                                    
                           
<?xpacket end="w"?></metadata>
<defs>
    <style>
      .cls-1 {
        fill: none;
        stroke: #000;
        stroke-linecap: round;
        stroke-linejoin: round;
        stroke-width: 7px;
        fill-rule: evenodd;
      }
    </style>
  </defs>
  <path id="t-3-1-t" class="cls-1" d="M97.254,411.439a46.476,46.476,0,0,1-4.575-19.068c-0.871-29.014,1.573-80.916,1.573-80.916s0.732-7.461,3.474-12.941a28.418,28.418,0,0,1,7.534-9.055s11.546-5.7,23.815-10.3c11.736-4.4,24.218-7.7,24.218-7.7a166.825,166.825,0,0,1,22.862,5.07,130.35,130.35,0,0,1,19.167,7.928,62.856,62.856,0,0,1,12.466,12.115,59.455,59.455,0,0,1,7.548,14.88l9.006,84.987s3.474,6.236-1.622,11.06c-4.352,4.119-17.391,6.937-17.391,6.937a276.245,276.245,0,0,1-43.3,5,264.191,264.191,0,0,1-42.757-3,45.172,45.172,0,0,1-11.9-.931A45.217,45.217,0,0,1,97.254,411.439Z"/>
  <path id="t-3-1-b" class="cls-1" d="M94.252,306.456l3.059-50.428a144.446,144.446,0,0,1,2.945-19.561s-0.181-2.534,2.621-13.276c4.307-16.511,10.933-42.966,16.832-70.924,9.777-46.338,17.573-96.771,17.573-96.771s2.035-7.117,7.29-11.413C150.3,39.4,161.3,35.5,161.3,35.5a88.161,88.161,0,0,1,11.617,8.546c1.91,1.718,7.334,25.3,7.424,26.546,1.789,24.92,5.862,76.134,11.789,118.611,6,42.987,16.2,74.26,16.2,74.26s4.322,15.925,4.6,29.8c0.215,10.708,1.405,15.195,1.405,15.195s-4.492-10.488-11.729-17.719c-6.756-6.75-16.29-10.277-16.29-10.277a119.076,119.076,0,0,0-15.546-5.376,177.535,177.535,0,0,0-18.478-3.622s-12.959,3.576-24.817,8.113c-11.657,4.461-22.215,9.884-22.215,9.884a47.373,47.373,0,0,0-6.889,8.092A41.147,41.147,0,0,0,94.252,306.456Z"/>
</svg>
