<svg id="t-kid-5-5" xmlns="http://www.w3.org/2000/svg" width="320" height="480" viewBox="0 0 320 480">
  <metadata><?xpacket begin="﻿" id="W5M0MpCehiHzreSzNTczkc9d"?>
<x:xmpmeta xmlns:x="adobe:ns:meta/" x:xmptk="Adobe XMP Core 5.6-c138 79.159824, 2016/09/14-01:09:01        ">
   <rdf:RDF xmlns:rdf="http://www.w3.org/1999/02/22-rdf-syntax-ns#">
      <rdf:Description rdf:about=""/>
   </rdf:RDF>
</x:xmpmeta>
                                                                                                    
                                                                                                    
                                                                                                    
                                                                                                    
                                                                                                    
                                                                                                    
                                                                                                    
                                                                                                    
                                                                                                    
                                                                                                    
                                                                                                    
                                                                                                    
                                                                                                    
                                                                                                    
                                                                                                    
                                                                                                    
                                                                                                    
                                                                                                    
                                                                                                    
                                                                                                    
                           
<?xpacket end="w"?></metadata>
<defs>
    <style>
      .cls-1, .cls-2 {
        fill: none;
        stroke: #000;
        stroke-linecap: round;
        stroke-linejoin: round;
        fill-rule: evenodd;
      }

      .cls-1 {
        stroke-width: 7px;
      }

      .cls-2 {
        stroke-width: 7.63px;
      }
    </style>
  </defs>
  <path id="t-5-5-b" class="cls-1" d="M220.811,268.29s9.92,15.721,14.406,40.015a488.928,488.928,0,0,1,6.8,58.32,67.206,67.206,0,0,1-.492,13.831,45.106,45.106,0,0,1-5.389,13.317,62.108,62.108,0,0,1-11.378,12.491,36.81,36.81,0,0,1-8.085,5.1A72.638,72.638,0,0,1,205.03,415.2a159.88,159.88,0,0,1-15.448-4.368,124.918,124.918,0,0,1-13.155-5.558s-6.346,2.859-12.164,4.886c-6.909,2.407-13.481,4.047-13.481,4.047A81.621,81.621,0,0,1,138.1,411.43a75.721,75.721,0,0,1-11.973-5.166,28.2,28.2,0,0,1-7.433,3.958,83.5,83.5,0,0,1-12.293,2.99,57.322,57.322,0,0,1-9.84-.678,16.848,16.848,0,0,1-5.942-2.3,69.025,69.025,0,0,1-9.376-8.941,73.094,73.094,0,0,1-7.391-10.912A122.8,122.8,0,0,1,71.116,356c1.684-27.114,8.653-60.909,8.653-60.909a59.526,59.526,0,0,1,4.308-10.681,53.08,53.08,0,0,1,6.541-9.171,106.937,106.937,0,0,1,18.522-13.7,168.782,168.782,0,0,1,24.875-11.111,55.9,55.9,0,0,1,9.675-1.479,59.181,59.181,0,0,1,10.051.486,100.852,100.852,0,0,0,12.319,3.149,60.279,60.279,0,0,0,10.367.822l12.822,4.963,12.822-.993a69.217,69.217,0,0,1,11.176,4.945A36.886,36.886,0,0,1,220.811,268.29Z"/>
  <path id="t-5-5-t" class="cls-2" d="M223.784,275.273s-0.014-9.585-11.556-13.866c-5.458-2.025-13.664-1.89-19.464-3.615a135.246,135.246,0,0,0-25.25-4.637,126.709,126.709,0,0,0-20.341-2.211,60.028,60.028,0,0,0-16.253,2.211,172.312,172.312,0,0,0-26.71,11.985,124.788,124.788,0,0,0-20.973,15.652s2.634-12.072,5.645-25.386C93.715,234.039,109.9,215.085,111,185.871c0.995-26.454,40.912-155.627,40.912-155.627s5.128-7.127,8.846-4.415c6.016,4.388,12.28,20.777,16.587,32.008,17.55,45.764,20.073,117.5,35.384,164.457C219.019,241.59,223.784,275.273,223.784,275.273Z"/>
</svg>
