<svg id="t-kid-8-4" xmlns="http://www.w3.org/2000/svg" width="320" height="480" viewBox="0 0 320 480">
  <metadata><?xpacket begin="﻿" id="W5M0MpCehiHzreSzNTczkc9d"?>
<x:xmpmeta xmlns:x="adobe:ns:meta/" x:xmptk="Adobe XMP Core 5.6-c138 79.159824, 2016/09/14-01:09:01        ">
   <rdf:RDF xmlns:rdf="http://www.w3.org/1999/02/22-rdf-syntax-ns#">
      <rdf:Description rdf:about=""/>
   </rdf:RDF>
</x:xmpmeta>
                                                                                                    
                                                                                                    
                                                                                                    
                                                                                                    
                                                                                                    
                                                                                                    
                                                                                                    
                                                                                                    
                                                                                                    
                                                                                                    
                                                                                                    
                                                                                                    
                                                                                                    
                                                                                                    
                                                                                                    
                                                                                                    
                                                                                                    
                                                                                                    
                                                                                                    
                                                                                                    
                           
<?xpacket end="w"?></metadata>
<defs>
    <style>
      .cls-1, .cls-2 {
        fill: none;
        stroke: #000;
        stroke-linecap: round;
        stroke-linejoin: round;
        fill-rule: evenodd;
      }

      .cls-1 {
        stroke-width: 7px;
      }

      .cls-2 {
        stroke-width: 7.63px;
      }
    </style>
  </defs>
  <path id="t-8-4-b" class="cls-1" d="M87.287,184.708S77.379,169,72.9,144.735A488.558,488.558,0,0,1,66.11,86.477,67.164,67.164,0,0,1,66.6,72.66a45.079,45.079,0,0,1,5.383-13.3A62.042,62.042,0,0,1,83.347,46.879a36.755,36.755,0,0,1,8.075-5.1,72.481,72.481,0,0,1,11.626-3.829s32.476,1.589,39.978,4.193c3.489,1.211-30.977,9.989-28.962,11.987,1.637,1.624,15.314-3.059,16.978-4,13.017-7.326,8.91-11.054,29.961-15.983,5.529-1.294,40.55,5.782,40.55,5.782a57.244,57.244,0,0,1,9.827.677,16.819,16.819,0,0,1,5.934,2.3,68.93,68.93,0,0,1,9.364,8.932,73.059,73.059,0,0,1,7.382,10.9,122.69,122.69,0,0,1,2.731,34.346c-1.682,27.085-8.642,60.845-8.642,60.845a59.473,59.473,0,0,1-4.3,10.67,53.014,53.014,0,0,1-6.532,9.162,106.842,106.842,0,0,1-18.5,13.69,168.527,168.527,0,0,1-24.843,11.1,55.819,55.819,0,0,1-9.663,1.478,59.153,59.153,0,0,1-10.038-.486,100.8,100.8,0,0,0-12.3-3.145,60.183,60.183,0,0,0-10.354-.821l-12.805-4.958L106,195.615a69.065,69.065,0,0,1-11.162-4.939A36.8,36.8,0,0,1,87.287,184.708Z"/>
  <path id="t-8-4-t" class="cls-2" d="M83,180.6s0.014,9.592,11.594,13.877c5.477,2.026,13.71,1.891,19.53,3.617a136.012,136.012,0,0,0,25.334,4.641,127.473,127.473,0,0,0,20.409,2.212,60.383,60.383,0,0,0,16.307-2.212,173.129,173.129,0,0,0,26.8-11.994,125.154,125.154,0,0,0,21.043-15.664,67.38,67.38,0,0,1-5.664,25.405c-11.581,25.1-17.993,45.779-22.189,69.585C190.965,299.534,148,436.055,148,436.055s-1.538,8.663-5,10.194c-13.96,6.178-7.727-2.553-13.407-48.059-5.8-46.511-12.209-98.769-23.593-163.069C102.53,215.52,83,180.6,83,180.6Z"/>
</svg>
