<svg id="t-kid-8-1" xmlns="http://www.w3.org/2000/svg" width="320" height="480" viewBox="0 0 320 480">
  <metadata><?xpacket begin="﻿" id="W5M0MpCehiHzreSzNTczkc9d"?>
<x:xmpmeta xmlns:x="adobe:ns:meta/" x:xmptk="Adobe XMP Core 5.6-c138 79.159824, 2016/09/14-01:09:01        ">
   <rdf:RDF xmlns:rdf="http://www.w3.org/1999/02/22-rdf-syntax-ns#">
      <rdf:Description rdf:about=""/>
   </rdf:RDF>
</x:xmpmeta>
                                                                                                    
                                                                                                    
                                                                                                    
                                                                                                    
                                                                                                    
                                                                                                    
                                                                                                    
                                                                                                    
                                                                                                    
                                                                                                    
                                                                                                    
                                                                                                    
                                                                                                    
                                                                                                    
                                                                                                    
                                                                                                    
                                                                                                    
                                                                                                    
                                                                                                    
                                                                                                    
                           
<?xpacket end="w"?></metadata>
<defs>
    <style>
      .cls-1 {
        fill: none;
        stroke: #000;
        stroke-linecap: round;
        stroke-linejoin: round;
        stroke-width: 7.63px;
        fill-rule: evenodd;
      }
    </style>
  </defs>
  <path id="t-8-1-b" class="cls-1" d="M126.819,343.644c10.14,48.755,19.161,96.987,18.322,96.661l7.992,12s12.566,14.523,16.982,6c-2.113,4.077,11.674-8,13.985-33.011,1.038-11.235,4.316-26.793,5.994-45.014,1.983-21.525,4.507-48.11,8.071-72.144,2.625-17.7,5.082-35.323,6.913-51.9,3.122-28.259,5.659-52.084,5.994-58.019,0.1-1.844-1.317.319-5.715,4.723-6.745,6.754-16.262,10.282-16.262,10.282a118.617,118.617,0,0,1-15.519,5.379,176.951,176.951,0,0,1-18.445,3.624s-12.937-3.578-24.774-8.117c-11.637-4.463-22.177-14.891-22.177-14.891C108.607,199.5,122.325,322.041,126.819,343.644Z"/>
  <path id="t-8-1" class="cls-1" d="M105.183,89.192c-6.484,5.088-1,79.025-1,79.025s3.712,24.317,4,28.009c0.2,2.624,3,8,3,8a105.224,105.224,0,0,0,44.953,16,79.664,79.664,0,0,0,22.822-3.072,129.962,129.962,0,0,0,19.134-7.931s13.368-8.771,13.985-14c6.3-53.436,11.78-90.861,0-109.035-0.9-1.384.106-.869-1-2-6.154-6.3-33.346-5.635-40.957-6-22.311-1.076-30.832-1.485-51.946-1,0,0-3.941,1.929-5.993,3C107.919,82.412,105.183,89.192,105.183,89.192Z"/>
</svg>
