<svg id="t-kid-8-4" xmlns="http://www.w3.org/2000/svg" width="320" height="480" viewBox="0 0 320 480">
  <metadata><?xpacket begin="﻿" id="W5M0MpCehiHzreSzNTczkc9d"?>
<x:xmpmeta xmlns:x="adobe:ns:meta/" x:xmptk="Adobe XMP Core 5.6-c138 79.159824, 2016/09/14-01:09:01        ">
   <rdf:RDF xmlns:rdf="http://www.w3.org/1999/02/22-rdf-syntax-ns#">
      <rdf:Description rdf:about=""/>
   </rdf:RDF>
</x:xmpmeta>
                                                                                                    
                                                                                                    
                                                                                                    
                                                                                                    
                                                                                                    
                                                                                                    
                                                                                                    
                                                                                                    
                                                                                                    
                                                                                                    
                                                                                                    
                                                                                                    
                                                                                                    
                                                                                                    
                                                                                                    
                                                                                                    
                                                                                                    
                                                                                                    
                                                                                                    
                                                                                                    
                           
<?xpacket end="w"?></metadata>
<defs>
    <style>
      .cls-1, .cls-2 {
        fill: none;
        stroke: #000;
        stroke-linecap: round;
        stroke-linejoin: round;
        fill-rule: evenodd;
      }

      .cls-1 {
        stroke-width: 7px;
      }

      .cls-2 {
        stroke-width: 7.63px;
      }
    </style>
  </defs>
  <path id="t-8-4-b" class="cls-1" d="M215.713,184.617s9.908-15.695,14.388-39.949a488,488,0,0,0,6.789-58.223,67.043,67.043,0,0,0-.491-13.809,45.046,45.046,0,0,0-5.383-13.3,62.014,62.014,0,0,0-11.363-12.47,36.763,36.763,0,0,0-8.075-5.092,72.506,72.506,0,0,0-11.626-3.826s-32.476,1.588-39.978,4.191c-3.489,1.21,30.977,9.983,28.962,11.98-1.637,1.623-15.314-3.057-16.978-3.993-13.017-7.322-8.91-11.048-29.961-15.974-5.529-1.294-40.55,5.778-40.55,5.778a57.28,57.28,0,0,0-9.827.677,16.825,16.825,0,0,0-5.934,2.3,68.886,68.886,0,0,0-9.364,8.926A72.963,72.963,0,0,0,68.94,62.727a122.56,122.56,0,0,0-2.731,34.326c1.682,27.069,8.641,60.808,8.641,60.808a59.452,59.452,0,0,0,4.3,10.664,52.982,52.982,0,0,0,6.533,9.156,106.793,106.793,0,0,0,18.5,13.682,168.576,168.576,0,0,0,24.843,11.092,55.819,55.819,0,0,0,9.663,1.478,59.215,59.215,0,0,0,10.038-.487,100.782,100.782,0,0,1,12.3-3.143,60.239,60.239,0,0,1,10.354-.82l12.805-4.955L197,195.518a69.044,69.044,0,0,0,11.162-4.937A36.779,36.779,0,0,0,215.713,184.617Z"/>
  <path id="t-8-4-t" class="cls-2" d="M220,180.509s-0.014,9.586-11.594,13.868c-5.477,2.025-13.71,1.89-19.53,3.615a136.15,136.15,0,0,1-25.334,4.638,127.528,127.528,0,0,1-20.409,2.211,60.408,60.408,0,0,1-16.307-2.211,173.169,173.169,0,0,1-26.8-11.987,125.166,125.166,0,0,1-21.043-15.654s2.643,12.074,5.664,25.389c4.848,21.37,21.087,40.326,22.189,69.544,1,26.456,48.163,165.89,48.163,165.89s9.268,6.258,13.043,5c8.062-2.685-1.823-12.37,5.361-42.842,10.748-45.594-1.522-110.4,31.036-164.362C214.938,216.213,220,180.509,220,180.509Z"/>
</svg>
