<svg id="t-kid-7-3" xmlns="http://www.w3.org/2000/svg" width="320" height="480" viewBox="0 0 320 480">
  <metadata><?xpacket begin="﻿" id="W5M0MpCehiHzreSzNTczkc9d"?>
<x:xmpmeta xmlns:x="adobe:ns:meta/" x:xmptk="Adobe XMP Core 5.6-c138 79.159824, 2016/09/14-01:09:01        ">
   <rdf:RDF xmlns:rdf="http://www.w3.org/1999/02/22-rdf-syntax-ns#">
      <rdf:Description rdf:about=""/>
   </rdf:RDF>
</x:xmpmeta>
                                                                                                    
                                                                                                    
                                                                                                    
                                                                                                    
                                                                                                    
                                                                                                    
                                                                                                    
                                                                                                    
                                                                                                    
                                                                                                    
                                                                                                    
                                                                                                    
                                                                                                    
                                                                                                    
                                                                                                    
                                                                                                    
                                                                                                    
                                                                                                    
                                                                                                    
                                                                                                    
                           
<?xpacket end="w"?></metadata>
<defs>
    <style>
      .cls-1 {
        fill: none;
        stroke: #000;
        stroke-linecap: round;
        stroke-linejoin: round;
        stroke-width: 6.99px;
        fill-rule: evenodd;
      }
    </style>
  </defs>
  <path id="t-3-4-b_копия" data-name="t-3-4-b копия" class="cls-1" d="M209.559,209.523c0.583,0.607,3.347-.842,6-8a166.716,166.716,0,0,0,6.078-22.417c1.413-11.056.92-10.012,1.924-25.56,1.763-27.316,4.545-47.086,0-51.41-10.988-10.453-14.911-15.232-19-17.993-6.394-4.313-48.01-21.554-48.01-21.554s-8.833-4.077-13.114-2.038c-9.392,4.473-45.848,27.5-45.9,27.59,0,0-5.815,3.716-14.716,17.424-4.441,6.839-2.287,17.995-2.287,17.995a130.136,130.136,0,0,0,1.573,15.6c1.031,6.534,2.2,14.346,3.185,21.857,2.162,16.561,3.244,31.515,3.244,31.515a48.594,48.594,0,0,0,4.294,9.657,47.4,47.4,0,0,0,6.708,8.335,135.885,135.885,0,0,0,14.671,10.18,105.886,105.886,0,0,0,14.336,6.812,31.332,31.332,0,0,0,8.115,2.821,79.772,79.772,0,0,0,11.889,1.177,57.778,57.778,0,0,0,10.233.555,101.1,101.1,0,0,0,12.772-1.554,81.867,81.867,0,0,0,19.126-6.559C200.138,219.228,209.559,209.523,209.559,209.523Z"/>
  <path id="t-3-4-t_копия" data-name="t-3-4-t копия" class="cls-1" d="M155.547,456.407a23.742,23.742,0,0,0,4.469-3.466,30.7,30.7,0,0,0,3.533-4.53,72.251,72.251,0,0,0,5.529-8.548,50.921,50.921,0,0,0,3.473-8.444S183.6,379.1,191.866,335.228c5.78-30.676,9.691-57.737,9.691-57.737l8-66.968s-8.328,7.532-15.524,11.55a80.949,80.949,0,0,1-18.483,7.441,34.336,34.336,0,0,1-7.525,1.884,54.441,54.441,0,0,1-9.479.115,77.981,77.981,0,0,1-11.305-.13,44.439,44.439,0,0,1-8.7-1.869,36.235,36.235,0,0,1-15.326-3.46c-9.126-4.169-24.683-16.531-24.683-16.531S112.762,259,118.591,293.147c5.129,30.056,6.95,49.314,6.95,49.314s2.948,20.047,3.921,37.548c0.475,8.54-.473,15.546-0.553,21.684a99.951,99.951,0,0,0,.633,12.734,158.182,158.182,0,0,0,2.714,16.466,32.907,32.907,0,0,0,3.287,8.522,40.548,40.548,0,0,0,4.642,8.807,66.608,66.608,0,0,0,8.361,9.185,5.852,5.852,0,0,0,3.129.552A11.676,11.676,0,0,0,155.547,456.407Z"/>
</svg>
