<svg id="t-kid-8-4" xmlns="http://www.w3.org/2000/svg" width="320" height="480" viewBox="0 0 320 480">
  <metadata><?xpacket begin="﻿" id="W5M0MpCehiHzreSzNTczkc9d"?>
<x:xmpmeta xmlns:x="adobe:ns:meta/" x:xmptk="Adobe XMP Core 5.6-c138 79.159824, 2016/09/14-01:09:01        ">
   <rdf:RDF xmlns:rdf="http://www.w3.org/1999/02/22-rdf-syntax-ns#">
      <rdf:Description rdf:about=""/>
   </rdf:RDF>
</x:xmpmeta>
                                                                                                    
                                                                                                    
                                                                                                    
                                                                                                    
                                                                                                    
                                                                                                    
                                                                                                    
                                                                                                    
                                                                                                    
                                                                                                    
                                                                                                    
                                                                                                    
                                                                                                    
                                                                                                    
                                                                                                    
                                                                                                    
                                                                                                    
                                                                                                    
                                                                                                    
                                                                                                    
                           
<?xpacket end="w"?></metadata>
<defs>
    <style>
      .cls-1, .cls-2 {
        fill: none;
        stroke: #000;
        stroke-linecap: round;
        stroke-linejoin: round;
        fill-rule: evenodd;
      }

      .cls-1 {
        stroke-width: 7px;
      }

      .cls-2 {
        stroke-width: 7.63px;
      }
    </style>
  </defs>
  <path id="t-8-4-b" class="cls-1" d="M87.287,184.617S77.379,168.922,72.9,144.668A487.979,487.979,0,0,1,66.11,86.445,67.083,67.083,0,0,1,66.6,72.636a45.035,45.035,0,0,1,5.383-13.3,62.021,62.021,0,0,1,11.363-12.47,36.756,36.756,0,0,1,8.075-5.092,72.511,72.511,0,0,1,11.626-3.826s32.476,1.588,39.978,4.191c3.489,1.21-30.977,9.983-28.962,11.98,1.637,1.623,15.314-3.057,16.978-3.993,13.017-7.322,8.91-11.048,29.961-15.974,5.529-1.294,40.55,5.778,40.55,5.778a57.281,57.281,0,0,1,9.827.677,16.825,16.825,0,0,1,5.934,2.3,68.921,68.921,0,0,1,9.364,8.926,73.009,73.009,0,0,1,7.382,10.894,122.544,122.544,0,0,1,2.731,34.326c-1.682,27.069-8.642,60.808-8.642,60.808a59.443,59.443,0,0,1-4.3,10.664,52.967,52.967,0,0,1-6.532,9.156,106.806,106.806,0,0,1-18.5,13.682,168.576,168.576,0,0,1-24.843,11.092,55.819,55.819,0,0,1-9.663,1.478,59.215,59.215,0,0,1-10.038-.487,100.782,100.782,0,0,0-12.3-3.143,60.239,60.239,0,0,0-10.354-.82l-12.805-4.955L106,195.518a69.063,69.063,0,0,1-11.162-4.937A36.787,36.787,0,0,1,87.287,184.617Z"/>
  <path id="t-8-4-t" class="cls-2" d="M83,180.509s0.014,9.586,11.594,13.868c5.477,2.025,13.71,1.89,19.53,3.615a136.15,136.15,0,0,0,25.334,4.638,127.528,127.528,0,0,0,20.409,2.211,60.408,60.408,0,0,0,16.307-2.211,173.169,173.169,0,0,0,26.8-11.987,125.166,125.166,0,0,0,21.043-15.654s-2.643,12.074-5.664,25.389c-4.849,21.37-21.087,40.326-22.189,69.544-1,26.456-48.163,165.89-48.163,165.89s-9.268,6.258-13.043,5c-8.062-2.685,1.823-12.37-5.361-42.842-10.748-45.594,1.522-110.4-31.036-164.362C88.062,216.213,83,180.509,83,180.509Z"/>
</svg>
