<svg id="t-kid-82" xmlns="http://www.w3.org/2000/svg" width="320" height="480" viewBox="0 0 320 480">
  <metadata><?xpacket begin="﻿" id="W5M0MpCehiHzreSzNTczkc9d"?>
<x:xmpmeta xmlns:x="adobe:ns:meta/" x:xmptk="Adobe XMP Core 5.6-c138 79.159824, 2016/09/14-01:09:01        ">
   <rdf:RDF xmlns:rdf="http://www.w3.org/1999/02/22-rdf-syntax-ns#">
      <rdf:Description rdf:about=""/>
   </rdf:RDF>
</x:xmpmeta>
                                                                                                    
                                                                                                    
                                                                                                    
                                                                                                    
                                                                                                    
                                                                                                    
                                                                                                    
                                                                                                    
                                                                                                    
                                                                                                    
                                                                                                    
                                                                                                    
                                                                                                    
                                                                                                    
                                                                                                    
                                                                                                    
                                                                                                    
                                                                                                    
                                                                                                    
                                                                                                    
                           
<?xpacket end="w"?></metadata>
<defs>
    <style>
      .cls-1 {
        fill: none;
        stroke: #000;
        stroke-linecap: round;
        stroke-linejoin: round;
        stroke-width: 7.63px;
        fill-rule: evenodd;
      }
    </style>
  </defs>
  <path id="t-8-1-b_копия" data-name="t-8-1-b копия" class="cls-1" d="M194.181,343.644c-10.14,48.755-19.161,96.987-18.322,96.661l-7.992,12s-12.566,14.523-16.982,6c2.113,4.077-11.674-8-13.985-33.011-1.038-11.235-4.316-26.793-5.994-45.014-1.983-21.525-4.507-48.11-8.071-72.144-2.625-17.7-5.082-35.323-6.913-51.9-3.122-28.259-5.659-52.084-5.994-58.019-0.1-1.844,1.317.319,5.715,4.723,6.745,6.754,16.262,10.282,16.262,10.282a118.617,118.617,0,0,0,15.519,5.379,176.951,176.951,0,0,0,18.445,3.624s12.937-3.578,24.774-8.117c11.637-4.463,22.177-14.891,22.177-14.891C212.393,199.5,198.675,322.041,194.181,343.644Z"/>
  <path id="t-8-1_копия" data-name="t-8-1 копия" class="cls-1" d="M215.817,89.192c6.484,5.088,1,79.025,1,79.025s-3.712,24.317-4,28.009c-0.2,2.624-3,8-3,8a112.014,112.014,0,0,1-20.777,10.3,111.417,111.417,0,0,1-24.176,5.7,79.664,79.664,0,0,1-22.822-3.072,129.962,129.962,0,0,1-19.134-7.931s-13.368-8.771-13.985-14c-6.3-53.436-11.781-90.861,0-109.035,0.9-1.384-.106-0.869,1-2,6.154-6.3,33.346-5.635,40.957-6,22.311-1.076,30.832-1.485,51.946-1,0,0,3.941,1.929,5.993,3C213.081,82.412,215.817,89.192,215.817,89.192Z"/>
</svg>
